999
"DXF R12 Output" (www.mydxf.blogspot.com)
 0 
SECTION
 2 
HEADER
 9 
$ACADVER
 1 
AC1009
 9 
$EXTMIN
 10 
 0 
 20 
 0 
 9 
$EXTMAX
 10 
 8.5 
 20 
 11 
 0 
ENDSEC
 0 
SECTION
 2 
ENTITIES
0
LINE
8
Layer 1
10
0.793749
20
79.058349
11
-0.793749
21
77.470851
0
LINE
8
Layer 1
10
0.000000
20
79.587515
11
0.000000
21
76.941685
0
LINE
8
Layer 1
10
2.116664
20
77.206268
11
1.058332
21
76.147936
0
LINE
8
Layer 1
10
1.587498
20
77.735434
11
0.529166
21
76.677102
0
LINE
8
Layer 1
10
1.058332
20
78.264600
11
0.000000
21
77.206268
0
LINE
8
Layer_1
10
202.132142
20
25.632305
11
202.132142
21
10.632324
0
LINE
8
Layer_1
10
202.132142
20
10.632324
11
205.132143
21
10.632324
0
LINE
8
Layer_1
10
205.132143
20
10.632324
11
205.132143
21
3.132333
0
LINE
8
Layer_1
10
205.132143
20
3.132333
11
221.132112
21
3.132333
0
LINE
8
Layer_1
10
221.132112
20
3.132333
11
221.132112
21
0.132338
0
LINE
8
Layer_1
10
221.132112
20
0.132338
11
246.132084
21
0.132332
0
LINE
8
Layer_1
10
246.132084
20
0.132332
11
246.132084
21
3.132328
0
LINE
8
Layer_1
10
246.132084
20
3.132328
11
262.132079
21
3.132328
0
LINE
8
Layer_1
10
262.132079
20
3.132328
11
262.132079
21
10.632317
0
LINE
8
Layer_1
10
262.132079
20
10.632317
11
265.132080
21
10.632317
0
LINE
8
Layer_1
10
265.132080
20
10.632317
11
265.132080
21
25.632297
0
LINE
8
Layer_1
10
265.132080
20
25.632297
11
262.132079
21
25.632297
0
LINE
8
Layer_1
10
262.132079
20
25.632297
11
262.132079
21
55.632260
0
LINE
8
Layer_1
10
262.132079
20
55.632260
11
265.132080
21
55.632260
0
LINE
8
Layer_1
10
265.132080
20
55.632260
11
265.132080
21
70.632240
0
LINE
8
Layer_1
10
265.132080
20
70.632240
11
262.132079
21
70.632240
0
LINE
8
Layer_1
10
262.132079
20
70.632240
11
262.132079
21
78.132231
0
LINE
8
Layer_1
10
262.132079
20
78.132231
11
205.132143
21
78.132239
0
LINE
8
Layer_1
10
205.132143
20
78.132239
11
205.132143
21
70.632251
0
LINE
8
Layer_1
10
205.132143
20
70.632251
11
202.132142
21
70.632251
0
LINE
8
Layer_1
10
202.132142
20
70.632251
11
202.132142
21
63.132257
0
LINE
8
Layer_1
10
202.132142
20
63.132257
11
202.132142
21
55.632268
0
LINE
8
Layer_1
10
202.132142
20
55.632268
11
205.132143
21
55.632268
0
LINE
8
Layer_1
10
205.132143
20
55.632268
11
205.132143
21
25.632305
0
LINE
8
Layer_1
10
205.132143
20
25.632305
11
202.132142
21
25.632305
0
LINE
8
Layer_1
10
252.895037
20
48.722706
11
255.601562
21
64.350619
0
LINE
8
Layer_1
10
255.601562
20
64.350619
11
256.132078
21
66.499784
0
LINE
8
Layer_1
10
256.132078
20
66.499784
11
255.866701
21
68.648952
0
LINE
8
Layer_1
10
255.866701
20
68.648952
11
248.039568
21
63.262728
0
LINE
8
Layer_1
10
248.039568
20
63.262728
11
248.039568
21
58.407265
0
LINE
8
Layer_1
10
248.039568
20
58.407265
11
248.304945
21
55.992717
0
LINE
8
Layer_1
10
248.304945
20
55.992717
11
248.304945
21
55.170208
0
LINE
8
Layer_1
10
248.304945
20
55.170208
11
247.243650
21
54.108931
0
LINE
8
Layer_1
10
247.243650
20
54.108931
11
239.681656
21
54.108931
0
LINE
8
Layer_1
10
239.681656
20
54.108931
11
239.681656
21
53.286176
0
LINE
8
Layer_1
10
239.681656
20
53.286176
11
240.769542
21
49.518604
0
LINE
8
Layer_1
10
240.769542
20
49.518604
11
241.592051
21
45.485650
0
LINE
8
Layer_1
10
241.592051
20
45.485650
11
248.304945
21
44.132379
0
LINE
8
Layer_1
10
248.304945
20
44.132379
11
250.745856
21
43.336482
0
LINE
8
Layer_1
10
250.745856
20
43.336482
11
251.276609
21
43.336482
0
LINE
8
Layer_1
10
251.276609
20
43.336482
11
252.895037
21
48.722706
0
LINE
8
Layer_1
10
222.461721
20
44.397761
11
225.406768
21
45.220268
0
LINE
8
Layer_1
10
225.406768
20
45.220268
11
227.025434
21
46.281547
0
LINE
8
Layer_1
10
227.025434
20
46.281547
11
228.643835
21
53.286176
0
LINE
8
Layer_1
10
228.643835
20
53.286176
11
228.909212
21
53.551558
0
LINE
8
Layer_1
10
228.909212
20
53.551558
11
227.582566
21
54.639446
0
LINE
8
Layer_1
10
227.582566
20
54.639446
11
222.461721
21
54.639446
0
LINE
8
Layer_1
10
222.461721
20
54.639446
11
221.639212
21
55.992717
0
LINE
8
Layer_1
10
221.639212
20
55.992717
11
220.285949
21
61.644078
0
LINE
8
Layer_1
10
220.285949
20
61.644078
11
216.252990
21
63.528107
0
LINE
8
Layer_1
10
216.252990
20
63.528107
11
211.954654
21
67.295684
0
LINE
8
Layer_1
10
211.954654
20
67.295684
11
211.132145
21
66.234405
0
LINE
8
Layer_1
10
211.132145
20
66.234405
11
211.397522
21
64.350619
0
LINE
8
Layer_1
10
211.397522
20
64.350619
11
213.015923
21
58.141882
0
LINE
8
Layer_1
10
213.015923
20
58.141882
11
214.369186
21
54.108931
0
LINE
8
Layer_1
10
214.369186
20
54.108931
11
214.634562
21
52.224899
0
LINE
8
Layer_1
10
214.634562
20
52.224899
11
215.722210
21
48.987842
0
LINE
8
Layer_1
10
215.722210
20
48.987842
11
215.987613
21
45.750786
0
LINE
8
Layer_1
10
215.987613
20
45.750786
11
216.783744
21
43.044491
0
LINE
8
Layer_1
10
216.783744
20
43.044491
11
219.224654
21
43.044491
0
LINE
8
Layer_1
10
219.224654
20
43.044491
11
222.461721
21
44.397761
0
LINE
8
Layer_1
10
244.271748
20
58.407265
11
244.006609
21
61.378942
0
LINE
8
Layer_1
10
244.006609
20
61.378942
11
243.741232
21
61.644078
0
LINE
8
Layer_1
10
243.741232
20
61.644078
11
242.918723
21
61.378942
0
LINE
8
Layer_1
10
242.918723
20
61.378942
11
240.238788
21
57.876503
0
LINE
8
Layer_1
10
240.238788
20
57.876503
11
242.918723
21
57.876503
0
LINE
8
Layer_1
10
242.918723
20
57.876503
11
244.271748
21
58.407265
0
LINE
8
Layer_1
10
226.229277
20
59.494910
11
225.141630
21
60.291050
0
LINE
8
Layer_1
10
225.141630
20
60.291050
11
224.610876
21
60.291050
0
LINE
8
Layer_1
10
224.610876
20
60.291050
11
224.610876
21
57.876503
0
LINE
8
Layer_1
10
224.610876
20
57.876503
11
225.141630
21
57.345742
0
LINE
8
Layer_1
10
225.141630
20
57.345742
11
227.582566
21
57.053994
0
LINE
8
Layer_1
10
227.582566
20
57.053994
11
226.229277
21
59.494910
0
LINE
8
Layer_1
10
238.620387
20
39.834046
11
237.267124
21
47.634818
0
LINE
8
Layer_1
10
237.267124
20
47.634818
11
235.383320
21
53.286176
0
LINE
8
Layer_1
10
235.383320
20
53.286176
11
233.764681
21
52.755661
0
LINE
8
Layer_1
10
233.764681
20
52.755661
11
232.146279
21
48.430715
0
LINE
8
Layer_1
10
232.146279
20
48.430715
11
231.350361
21
43.867000
0
LINE
8
Layer_1
10
231.350361
20
43.867000
11
230.527851
21
40.629943
0
LINE
8
Layer_1
10
230.527851
20
40.629943
11
230.792990
21
39.542298
0
LINE
8
Layer_1
10
230.792990
20
39.542298
11
238.089634
21
39.276916
0
LINE
8
Layer_1
10
238.089634
20
39.276916
11
238.620387
21
39.834046
0
LINE
8
Layer_1
10
241.857428
20
20.146570
11
240.769542
21
22.852866
0
LINE
8
Layer_1
10
240.769542
20
22.852866
11
240.769542
21
24.471516
0
LINE
8
Layer_1
10
240.769542
20
24.471516
11
241.300057
21
25.002034
0
LINE
8
Layer_1
10
241.300057
20
25.002034
11
243.741232
21
24.471516
0
LINE
8
Layer_1
10
243.741232
20
24.471516
11
248.862078
21
21.764977
0
LINE
8
Layer_1
10
248.862078
20
21.764977
11
250.745856
21
22.852866
0
LINE
8
Layer_1
10
250.745856
20
22.852866
11
255.309568
21
32.829415
0
LINE
8
Layer_1
10
255.309568
20
32.829415
11
255.601562
21
34.156074
0
LINE
8
Layer_1
10
255.601562
20
34.156074
11
255.044192
21
34.713203
0
LINE
8
Layer_1
10
255.044192
20
34.713203
11
250.480479
21
32.537424
0
LINE
8
Layer_1
10
250.480479
20
32.537424
11
240.769542
21
32.006908
0
LINE
8
Layer_1
10
240.769542
20
32.006908
11
229.466344
21
33.625315
0
LINE
8
Layer_1
10
229.466344
20
33.625315
11
222.461721
21
36.039862
0
LINE
8
Layer_1
10
222.461721
20
36.039862
11
217.871391
21
37.392887
0
LINE
8
Layer_1
10
217.871391
20
37.392887
11
212.485169
21
40.099425
0
LINE
8
Layer_1
10
212.485169
20
40.099425
11
211.954654
21
40.099425
0
LINE
8
Layer_1
10
211.954654
20
40.099425
11
211.954654
21
38.746157
0
LINE
8
Layer_1
10
211.954654
20
38.746157
11
213.015923
21
36.596989
0
LINE
8
Layer_1
10
213.015923
20
36.596989
11
214.899701
21
26.885820
0
LINE
8
Layer_1
10
214.899701
20
26.885820
11
216.252990
21
26.885820
0
LINE
8
Layer_1
10
216.252990
20
26.885820
11
217.871391
21
27.973708
0
LINE
8
Layer_1
10
217.871391
20
27.973708
11
218.959277
21
27.973708
0
LINE
8
Layer_1
10
218.959277
20
27.973708
11
219.755408
21
26.885820
0
LINE
8
Layer_1
10
219.755408
20
26.885820
11
219.755408
21
22.322350
0
LINE
8
Layer_1
10
219.755408
20
22.322350
11
222.727098
21
21.234459
0
LINE
8
Layer_1
10
222.727098
20
21.234459
11
225.141630
21
20.969080
0
LINE
8
Layer_1
10
225.141630
20
20.969080
11
228.113320
21
20.411952
0
LINE
8
Layer_1
10
228.113320
20
20.411952
11
241.300057
21
19.615809
0
LINE
8
Layer_1
10
241.300057
20
19.615809
11
241.857428
21
20.146570
0
LINE
8
Layer_1
10
60.132529
20
70.782251
11
60.132507
21
55.482265
0
LINE
8
Layer_1
10
60.132507
20
55.482265
11
63.132503
21
55.482265
0
LINE
8
Layer_1
10
63.132503
20
55.482265
11
63.132503
21
25.782302
0
LINE
8
Layer_1
10
63.132503
20
25.782302
11
60.132507
21
25.782302
0
LINE
8
Layer_1
10
60.132507
20
25.782302
11
60.132507
21
10.482322
0
LINE
8
Layer_1
10
60.132507
20
10.482322
11
63.132503
21
10.482322
0
LINE
8
Layer_1
10
63.132503
20
10.482322
11
63.132503
21
3.132328
0
LINE
8
Layer_1
10
63.132503
20
3.132328
11
44.132528
21
3.132328
0
LINE
8
Layer_1
10
44.132528
20
3.132328
11
44.132528
21
0.132332
0
LINE
8
Layer_1
10
44.132528
20
0.132332
11
19.132570
21
0.132338
0
LINE
8
Layer_1
10
19.132570
20
0.132338
11
19.132570
21
3.132333
0
LINE
8
Layer_1
10
19.132570
20
3.132333
11
0.132198
21
3.132333
0
LINE
8
Layer_1
10
0.132198
20
3.132333
11
0.132198
21
10.482327
0
LINE
8
Layer_1
10
0.132198
20
10.482327
11
3.132193
21
10.482327
0
LINE
8
Layer_1
10
3.132193
20
10.482327
11
3.132193
21
25.782305
0
LINE
8
Layer_1
10
3.132193
20
25.782305
11
0.132198
21
25.782305
0
LINE
8
Layer_1
10
0.132198
20
25.782305
11
0.132198
21
55.482265
0
LINE
8
Layer_1
10
0.132198
20
55.482265
11
3.132193
21
55.482265
0
LINE
8
Layer_1
10
3.132193
20
55.482265
11
3.132193
21
70.782251
0
LINE
8
Layer_1
10
3.132193
20
70.782251
11
0.132198
21
70.782251
0
LINE
8
Layer_1
10
0.132198
20
70.782251
11
0.132198
21
78.132239
0
LINE
8
Layer_1
10
0.132198
20
78.132239
11
63.132524
21
78.132231
0
LINE
8
Layer_1
10
63.132524
20
78.132231
11
63.132524
21
70.782251
0
LINE
8
Layer_1
10
63.132524
20
70.782251
11
60.132529
21
70.782251
0
LINE
8
Layer_1
10
21.805715
20
43.884989
11
22.795949
21
49.850071
0
LINE
8
Layer_1
10
22.795949
20
49.850071
11
23.810593
21
52.325409
0
LINE
8
Layer_1
10
23.810593
20
52.325409
11
22.548392
21
52.820526
0
LINE
8
Layer_1
10
22.548392
20
52.820526
11
21.310844
21
54.330289
0
LINE
8
Layer_1
10
21.310844
20
54.330289
11
21.310844
21
56.062953
0
LINE
8
Layer_1
10
21.310844
20
56.062953
11
22.548392
21
57.300501
0
LINE
8
Layer_1
10
22.548392
20
57.300501
11
27.028369
21
57.052944
0
LINE
8
Layer_1
10
27.028369
20
57.052944
11
27.275918
21
56.805384
0
LINE
8
Layer_1
10
27.275918
20
56.805384
11
27.771038
21
56.805384
0
LINE
8
Layer_1
10
27.771038
20
56.805384
11
28.266157
21
61.285602
0
LINE
8
Layer_1
10
28.266157
20
61.285602
11
27.523478
21
64.775587
0
LINE
8
Layer_1
10
27.523478
20
64.775587
11
24.058153
21
66.260696
0
LINE
8
Layer_1
10
24.058153
20
66.260696
11
19.330621
21
67.003365
0
LINE
8
Layer_1
10
19.330621
20
67.003365
11
15.097959
21
66.260696
0
LINE
8
Layer_1
10
15.097959
20
66.260696
11
12.870181
21
63.760943
0
LINE
8
Layer_1
10
12.870181
20
63.760943
11
10.122870
21
50.592745
0
LINE
8
Layer_1
10
10.122870
20
50.592745
11
10.617741
21
47.870093
0
LINE
8
Layer_1
10
10.617741
20
47.870093
11
11.360418
21
45.864969
0
LINE
8
Layer_1
10
11.360418
20
45.864969
11
12.870181
21
44.874979
0
LINE
8
Layer_1
10
12.870181
20
44.874979
11
21.063285
21
43.389875
0
LINE
8
Layer_1
10
21.063285
20
43.389875
11
21.805715
21
43.884989
0
LINE
8
Layer_1
10
44.924337
20
43.637432
11
50.394551
21
45.122536
0
LINE
8
Layer_1
10
50.394551
20
45.122536
11
52.151869
21
46.112526
0
LINE
8
Layer_1
10
52.151869
20
46.112526
11
53.636976
21
48.117407
0
LINE
8
Layer_1
10
53.636976
20
48.117407
11
53.636976
21
53.092742
0
LINE
8
Layer_1
10
53.636976
20
53.092742
11
52.894297
21
54.330289
0
LINE
8
Layer_1
10
52.894297
20
54.330289
11
50.889419
21
61.780719
0
LINE
8
Layer_1
10
50.889419
20
61.780719
11
49.899432
21
64.255819
0
LINE
8
Layer_1
10
49.899432
20
64.255819
11
47.919213
21
65.518266
0
LINE
8
Layer_1
10
47.919213
20
65.518266
11
43.934109
21
66.260696
0
LINE
8
Layer_1
10
43.934109
20
66.260696
11
37.968786
21
65.765826
0
LINE
8
Layer_1
10
37.968786
20
65.765826
11
34.751010
21
65.023147
0
LINE
8
Layer_1
10
34.751010
20
65.023147
11
33.488812
21
63.760943
0
LINE
8
Layer_1
10
33.488812
20
63.760943
11
33.241252
21
59.305381
0
LINE
8
Layer_1
10
33.241252
20
59.305381
11
32.993692
21
57.052944
0
LINE
8
Layer_1
10
32.993692
20
57.052944
11
32.993692
21
56.310510
0
LINE
8
Layer_1
10
32.993692
20
56.310510
11
34.751010
21
56.310510
0
LINE
8
Layer_1
10
34.751010
20
56.310510
11
36.731236
21
56.558070
0
LINE
8
Layer_1
10
36.731236
20
56.558070
11
37.473908
21
56.558070
0
LINE
8
Layer_1
10
37.473908
20
56.558070
11
38.959015
21
54.825406
0
LINE
8
Layer_1
10
38.959015
20
54.825406
11
39.206574
21
52.820526
0
LINE
8
Layer_1
10
39.206574
20
52.820526
11
39.206574
21
52.077849
0
LINE
8
Layer_1
10
39.206574
20
52.077849
11
37.968786
21
51.087862
0
LINE
8
Layer_1
10
37.968786
20
51.087862
11
37.968786
21
49.602757
0
LINE
8
Layer_1
10
37.968786
20
49.602757
11
38.959015
21
46.112526
0
LINE
8
Layer_1
10
38.959015
20
46.112526
11
39.454134
21
44.132549
0
LINE
8
Layer_1
10
39.454134
20
44.132549
11
40.196562
21
43.389875
0
LINE
8
Layer_1
10
40.196562
20
43.389875
11
44.924337
21
43.637432
0
LINE
8
Layer_1
10
35.246129
20
42.399885
11
35.988809
21
43.389875
0
LINE
8
Layer_1
10
35.988809
20
43.389875
11
33.736361
21
50.592745
0
LINE
8
Layer_1
10
33.736361
20
50.592745
11
32.746132
21
52.572966
0
LINE
8
Layer_1
10
32.746132
20
52.572966
11
31.508585
21
53.340299
0
LINE
8
Layer_1
10
31.508585
20
53.340299
11
29.033488
21
51.582735
0
LINE
8
Layer_1
10
29.033488
20
51.582735
11
27.771038
21
49.850071
0
LINE
8
Layer_1
10
27.771038
20
49.850071
11
26.038382
21
45.864969
0
LINE
8
Layer_1
10
26.038382
20
45.864969
11
26.285931
21
43.389875
0
LINE
8
Layer_1
10
26.285931
20
43.389875
11
27.523478
21
42.647198
0
LINE
8
Layer_1
10
27.523478
20
42.647198
11
29.280807
21
42.894758
0
LINE
8
Layer_1
10
29.280807
20
42.894758
11
30.766155
21
45.122536
0
LINE
8
Layer_1
10
30.766155
20
45.122536
11
31.013466
21
45.370096
0
LINE
8
Layer_1
10
31.013466
20
45.370096
11
32.003704
21
44.379862
0
LINE
8
Layer_1
10
32.003704
20
44.379862
11
32.498573
21
42.399885
0
LINE
8
Layer_1
10
32.498573
20
42.399885
11
33.983920
21
41.904768
0
LINE
8
Layer_1
10
33.983920
20
41.904768
11
35.246129
21
42.399885
0
LINE
8
Layer_1
10
42.201440
20
22.499031
11
41.706572
21
23.736821
0
LINE
8
Layer_1
10
41.706572
20
23.736821
11
41.706572
21
24.999028
0
LINE
8
Layer_1
10
41.706572
20
24.999028
11
42.944119
21
25.741702
0
LINE
8
Layer_1
10
42.944119
20
25.741702
11
46.929226
21
25.494145
0
LINE
8
Layer_1
10
46.929226
20
25.494145
11
48.166762
21
24.751468
0
LINE
8
Layer_1
10
48.166762
20
24.751468
11
50.394551
21
27.226809
0
LINE
8
Layer_1
10
50.394551
20
27.226809
11
51.904310
21
30.221677
0
LINE
8
Layer_1
10
51.904310
20
30.221677
11
53.389417
21
35.172109
0
LINE
8
Layer_1
10
53.389417
20
35.172109
11
54.132096
21
37.424549
0
LINE
8
Layer_1
10
54.132096
20
37.424549
11
54.132096
21
37.919666
0
LINE
8
Layer_1
10
54.132096
20
37.919666
11
53.884536
21
38.167223
0
LINE
8
Layer_1
10
53.884536
20
38.167223
11
51.904310
21
37.424549
0
LINE
8
Layer_1
10
51.904310
20
37.424549
11
45.419216
21
36.434559
0
LINE
8
Layer_1
10
45.419216
20
36.434559
11
45.171656
21
30.964353
0
LINE
8
Layer_1
10
45.171656
20
30.964353
11
43.191679
21
30.469236
0
LINE
8
Layer_1
10
43.191679
20
30.469236
11
40.963892
21
30.469236
0
LINE
8
Layer_1
10
40.963892
20
30.469236
11
39.949002
21
31.954341
0
LINE
8
Layer_1
10
39.949002
20
31.954341
11
39.454134
21
34.429679
0
LINE
8
Layer_1
10
39.454134
20
34.429679
11
37.226348
21
34.429679
0
LINE
8
Layer_1
10
37.226348
20
34.429679
11
34.998570
21
33.934562
0
LINE
8
Layer_1
10
34.998570
20
33.934562
11
33.983920
21
33.934562
0
LINE
8
Layer_1
10
33.983920
20
33.934562
11
33.736361
21
34.182122
0
LINE
8
Layer_1
10
33.736361
20
34.182122
11
32.993692
21
31.706781
0
LINE
8
Layer_1
10
32.993692
20
31.706781
11
31.508585
21
30.716794
0
LINE
8
Layer_1
10
31.508585
20
30.716794
11
26.781050
21
30.964353
0
LINE
8
Layer_1
10
26.781050
20
30.964353
11
26.038382
21
31.706781
0
LINE
8
Layer_1
10
26.038382
20
31.706781
11
26.038382
21
33.687005
0
LINE
8
Layer_1
10
26.038382
20
33.687005
11
24.553272
21
34.429679
0
LINE
8
Layer_1
10
24.553272
20
34.429679
11
23.315725
21
34.677236
0
LINE
8
Layer_1
10
23.315725
20
34.677236
11
21.805715
21
35.172109
0
LINE
8
Layer_1
10
21.805715
20
35.172109
11
19.330621
21
36.187002
0
LINE
8
Layer_1
10
19.330621
20
36.187002
11
18.587947
21
36.187002
0
LINE
8
Layer_1
10
18.587947
20
36.187002
11
16.583066
21
32.697015
0
LINE
8
Layer_1
10
16.583066
20
32.697015
11
15.840636
21
32.449458
0
LINE
8
Layer_1
10
15.840636
20
32.449458
11
15.097959
21
32.449458
0
LINE
8
Layer_1
10
15.097959
20
32.449458
11
13.860412
21
33.934562
0
LINE
8
Layer_1
10
13.860412
20
33.934562
11
14.355532
21
36.434559
0
LINE
8
Layer_1
10
14.355532
20
36.434559
11
14.602845
21
37.176990
0
LINE
8
Layer_1
10
14.602845
20
37.176990
11
14.602845
21
37.919666
0
LINE
8
Layer_1
10
14.602845
20
37.919666
11
12.870181
21
38.662340
0
LINE
8
Layer_1
10
12.870181
20
38.662340
11
9.627753
21
41.657211
0
LINE
8
Layer_1
10
9.627753
20
41.657211
11
9.132637
21
41.657211
0
LINE
8
Layer_1
10
9.132637
20
41.657211
11
9.380194
21
38.414780
0
LINE
8
Layer_1
10
9.380194
20
38.414780
11
11.112858
21
31.706781
0
LINE
8
Layer_1
10
11.112858
20
31.706781
11
13.860412
21
27.226809
0
LINE
8
Layer_1
10
13.860412
20
27.226809
11
14.107972
21
26.484132
0
LINE
8
Layer_1
10
14.107972
20
26.484132
11
14.602845
21
25.989259
0
LINE
8
Layer_1
10
14.602845
20
25.989259
11
19.083064
21
27.474366
0
LINE
8
Layer_1
10
19.083064
20
27.474366
11
19.825737
21
27.474366
0
LINE
8
Layer_1
10
19.825737
20
27.474366
11
20.815728
21
25.494145
0
LINE
8
Layer_1
10
20.815728
20
25.494145
11
21.558158
21
22.004157
0
LINE
8
Layer_1
10
21.558158
20
22.004157
11
22.053275
21
21.509041
0
LINE
8
Layer_1
10
22.053275
20
21.509041
11
28.785928
21
21.756600
0
LINE
8
Layer_1
10
28.785928
20
21.756600
11
29.280807
21
22.251717
0
LINE
8
Layer_1
10
29.280807
20
22.251717
11
29.280807
21
25.741702
0
LINE
8
Layer_1
10
29.280807
20
25.741702
11
29.775916
21
26.236575
0
LINE
8
Layer_1
10
29.775916
20
26.236575
11
31.261025
21
25.989259
0
LINE
8
Layer_1
10
31.261025
20
25.989259
11
32.746132
21
24.256597
0
LINE
8
Layer_1
10
32.746132
20
24.256597
11
33.736361
21
21.509041
0
LINE
8
Layer_1
10
33.736361
20
21.509041
11
42.201440
21
21.261483
0
LINE
8
Layer_1
10
42.201440
20
21.261483
11
42.201440
21
22.499031
0
LINE
8
Layer_0
10
137.798630
20
70.782240
11
137.798609
21
55.482257
0
LINE
8
Layer_0
10
137.798609
20
55.482257
11
134.798613
21
55.482159
0
LINE
8
Layer_0
10
134.798613
20
55.482159
11
134.798613
21
25.782196
0
LINE
8
Layer_0
10
134.798613
20
25.782196
11
137.798609
21
25.782294
0
LINE
8
Layer_0
10
137.798609
20
25.782294
11
137.798720
21
10.482314
0
LINE
8
Layer_0
10
137.798720
20
10.482314
11
134.798724
21
10.482216
0
LINE
8
Layer_0
10
134.798724
20
10.482216
11
134.798724
21
3.132227
0
LINE
8
Layer_0
10
134.798724
20
3.132227
11
153.798699
21
3.132322
0
LINE
8
Layer_0
10
153.798699
20
3.132322
11
153.798699
21
0.132324
0
LINE
8
Layer_0
10
153.798699
20
0.132324
11
178.798668
21
0.132324
0
LINE
8
Layer_0
10
178.798668
20
0.132324
11
178.798668
21
3.132322
0
LINE
8
Layer_0
10
178.798668
20
3.132322
11
197.799067
21
3.132317
0
LINE
8
Layer_0
10
197.799067
20
3.132317
11
197.799067
21
10.482306
0
LINE
8
Layer_0
10
197.799067
20
10.482306
11
194.799066
21
10.482306
0
LINE
8
Layer_0
10
194.799066
20
10.482306
11
194.799066
21
25.782291
0
LINE
8
Layer_0
10
194.799066
20
25.782291
11
197.799067
21
25.782291
0
LINE
8
Layer_0
10
197.799067
20
25.782291
11
197.799067
21
55.482249
0
LINE
8
Layer_0
10
197.799067
20
55.482249
11
194.799092
21
55.482249
0
LINE
8
Layer_0
10
194.799092
20
55.482249
11
194.799092
21
70.782229
0
LINE
8
Layer_0
10
194.799092
20
70.782229
11
197.799067
21
70.782229
0
LINE
8
Layer_0
10
197.799067
20
70.782229
11
197.799067
21
78.132221
0
LINE
8
Layer_0
10
197.799067
20
78.132221
11
134.799666
21
78.132131
0
LINE
8
Layer_0
10
134.799666
20
78.132131
11
134.799666
21
70.782139
0
LINE
8
Layer_0
10
134.799666
20
70.782139
11
137.799662
21
70.782240
0
LINE
8
Layer_0
10
184.234830
20
47.167120
11
182.272434
21
50.430301
0
LINE
8
Layer_0
10
182.272434
20
50.430301
11
180.538055
21
55.427854
0
LINE
8
Layer_0
10
180.538055
20
55.427854
11
179.009268
21
58.257439
0
LINE
8
Layer_0
10
179.009268
20
58.257439
11
178.370348
21
60.425406
0
LINE
8
Layer_0
10
178.370348
20
60.425406
11
177.708491
21
61.748890
0
LINE
8
Layer_0
10
177.708491
20
61.748890
11
176.407952
21
65.217388
0
LINE
8
Layer_0
10
176.407952
20
65.217388
11
175.974361
21
65.217388
0
LINE
8
Layer_0
10
175.974361
20
65.217388
11
174.445315
21
57.618524
0
LINE
8
Layer_0
10
174.445315
20
57.618524
11
173.806394
21
56.295040
0
LINE
8
Layer_0
10
173.806394
20
56.295040
11
171.410397
21
48.696171
0
LINE
8
Layer_0
10
171.410397
20
48.696171
11
170.543218
21
47.167120
0
LINE
8
Layer_0
10
170.543218
20
47.167120
11
170.543218
21
46.733770
0
LINE
8
Layer_0
10
170.543218
20
46.733770
11
184.006802
21
46.094611
0
LINE
8
Layer_0
10
184.006802
20
46.094611
11
184.234830
21
45.866586
0
LINE
8
Layer_0
10
184.234830
20
45.866586
11
184.234830
21
47.167120
0
LINE
8
Layer_0
10
161.415541
20
47.167120
11
160.320080
21
50.224977
0
LINE
8
Layer_0
10
160.320080
20
50.224977
11
159.019303
21
55.427854
0
LINE
8
Layer_0
10
159.019303
20
55.427854
11
156.851585
21
64.555769
0
LINE
8
Layer_0
10
156.851585
20
64.555769
11
156.623306
21
64.783797
0
LINE
8
Layer_0
10
156.623306
20
64.783797
11
155.756127
21
64.555769
0
LINE
8
Layer_0
10
155.756127
20
64.555769
11
149.891626
21
48.490850
0
LINE
8
Layer_0
10
149.891626
20
48.490850
11
149.458035
21
47.828985
0
LINE
8
Layer_0
10
149.458035
20
47.828985
11
149.458035
21
46.961798
0
LINE
8
Layer_0
10
149.458035
20
46.961798
11
161.415541
21
46.300179
0
LINE
8
Layer_0
10
161.415541
20
46.300179
11
161.415541
21
47.167120
0
LINE
8
Layer_0
10
167.713633
20
43.036998
11
167.280034
21
44.794078
0
LINE
8
Layer_0
10
167.280034
20
44.794078
11
166.184825
21
45.432993
0
LINE
8
Layer_0
10
166.184825
20
45.432993
11
165.317635
21
44.999399
0
LINE
8
Layer_0
10
165.317635
20
44.999399
11
162.282731
21
38.701311
0
LINE
8
Layer_0
10
162.282731
20
38.701311
11
162.282731
21
37.605855
0
LINE
8
Layer_0
10
162.282731
20
37.605855
11
169.676029
21
37.400531
0
LINE
8
Layer_0
10
169.676029
20
37.400531
11
167.713633
21
43.036998
0
LINE
8
Layer_0
10
172.711177
20
23.914219
11
172.711177
21
25.443027
0
LINE
8
Layer_0
10
172.711177
20
25.443027
11
172.277586
21
26.743807
0
LINE
8
Layer_0
10
172.277586
20
26.743807
11
172.277586
21
27.610994
0
LINE
8
Layer_0
10
172.277586
20
27.610994
11
174.011714
21
28.706206
0
LINE
8
Layer_0
10
174.011714
20
28.706206
11
176.179683
21
28.478178
0
LINE
8
Layer_0
10
176.179683
20
28.478178
11
180.310038
21
25.648349
0
LINE
8
Layer_0
10
180.310038
20
25.648349
11
180.971657
21
25.648349
0
LINE
8
Layer_0
10
180.971657
20
25.648349
11
183.801242
21
28.044585
0
LINE
8
Layer_0
10
183.801242
20
28.044585
11
187.498006
21
33.475487
0
LINE
8
Layer_0
10
187.498006
20
33.475487
11
188.798800
21
37.834124
0
LINE
8
Layer_0
10
188.798800
20
37.834124
11
188.798800
21
38.473039
0
LINE
8
Layer_0
10
188.798800
20
38.473039
11
187.269989
21
38.473039
0
LINE
8
Layer_0
10
187.269989
20
38.473039
11
185.102020
21
37.400531
0
LINE
8
Layer_0
10
185.102020
20
37.400531
11
184.234830
21
37.400531
0
LINE
8
Layer_0
10
184.234830
20
37.400531
11
183.801242
21
36.966937
0
LINE
8
Layer_0
10
183.801242
20
36.966937
11
184.440401
21
34.137352
0
LINE
8
Layer_0
10
184.440401
20
34.137352
11
184.440401
21
33.475487
0
LINE
8
Layer_0
10
184.440401
20
33.475487
11
183.367892
21
32.836572
0
LINE
8
Layer_0
10
183.367892
20
32.836572
11
182.067115
21
33.041893
0
LINE
8
Layer_0
10
182.067115
20
33.041893
11
180.743626
21
35.438132
0
LINE
8
Layer_0
10
180.743626
20
35.438132
11
180.310038
21
35.871482
0
LINE
8
Layer_0
10
180.310038
20
35.871482
11
176.613271
21
33.909080
0
LINE
8
Layer_0
10
176.613271
20
33.909080
11
169.014410
21
32.608300
0
LINE
8
Layer_0
10
169.014410
20
32.608300
11
165.317635
21
32.608300
0
LINE
8
Layer_0
10
165.317635
20
32.608300
11
164.450446
21
28.478178
0
LINE
8
Layer_0
10
164.450446
20
28.478178
11
164.016858
21
28.044585
0
LINE
8
Layer_0
10
164.016858
20
28.044585
11
160.548352
21
28.272613
0
LINE
8
Layer_0
10
160.548352
20
28.272613
11
159.452894
21
28.706206
0
LINE
8
Layer_0
10
159.452894
20
28.706206
11
158.791275
21
29.573393
0
LINE
8
Layer_0
10
158.791275
20
29.573393
11
158.585953
21
33.270165
0
LINE
8
Layer_0
10
158.585953
20
33.270165
11
155.322777
21
34.570945
0
LINE
8
Layer_0
10
155.322777
20
34.570945
11
149.458035
21
36.738666
0
LINE
8
Layer_0
10
149.458035
20
36.738666
11
146.628450
21
38.267717
0
LINE
8
Layer_0
10
146.628450
20
38.267717
11
145.099642
21
38.906632
0
LINE
8
Layer_0
10
145.099642
20
38.906632
11
143.798862
21
40.001847
0
LINE
8
Layer_0
10
143.798862
20
40.001847
11
143.798862
21
37.605855
0
LINE
8
Layer_0
10
143.798862
20
37.605855
11
147.062038
21
30.440579
0
LINE
8
Layer_0
10
147.062038
20
30.440579
11
147.267368
21
29.573393
0
LINE
8
Layer_0
10
147.267368
20
29.573393
11
148.590846
21
28.272613
0
LINE
8
Layer_0
10
148.590846
20
28.272613
11
151.192414
21
30.212308
0
LINE
8
Layer_0
10
151.192414
20
30.212308
11
151.854033
21
30.212308
0
LINE
8
Layer_0
10
151.854033
20
30.212308
11
152.926541
21
29.139799
0
LINE
8
Layer_0
10
152.926541
20
29.139799
11
153.360132
21
23.708897
0
LINE
8
Layer_0
10
153.360132
20
23.708897
11
155.094508
21
23.275304
0
LINE
8
Layer_0
10
155.094508
20
23.275304
11
160.548352
21
23.047035
0
LINE
8
Layer_0
10
160.548352
20
23.047035
11
167.485353
21
23.047035
0
LINE
8
Layer_0
10
167.485353
20
23.047035
11
172.711177
21
23.914219
0
LINE
8
Layer_0
10
130.465519
20
25.632297
11
130.465519
21
10.632317
0
LINE
8
Layer_0
10
130.465519
20
10.632317
11
127.465523
21
10.632317
0
LINE
8
Layer_0
10
127.465523
20
10.632317
11
127.465523
21
3.132325
0
LINE
8
Layer_0
10
127.465523
20
3.132325
11
111.465544
21
3.132325
0
LINE
8
Layer_0
10
111.465544
20
3.132325
11
111.465544
21
0.132330
0
LINE
8
Layer_0
10
111.465544
20
0.132330
11
86.465575
21
0.132332
0
LINE
8
Layer_0
10
86.465575
20
0.132332
11
86.465575
21
3.132328
0
LINE
8
Layer_0
10
86.465575
20
3.132328
11
70.465595
21
3.132328
0
LINE
8
Layer_0
10
70.465595
20
3.132328
11
70.465595
21
10.632324
0
LINE
8
Layer_0
10
70.465595
20
10.632324
11
67.465600
21
10.632324
0
LINE
8
Layer_0
10
67.465600
20
10.632324
11
67.465600
21
25.632305
0
LINE
8
Layer_0
10
67.465600
20
25.632305
11
70.465595
21
25.632305
0
LINE
8
Layer_0
10
70.465595
20
25.632305
11
70.465595
21
55.632268
0
LINE
8
Layer_0
10
70.465595
20
55.632268
11
67.465600
21
55.632268
0
LINE
8
Layer_0
10
67.465600
20
55.632268
11
67.465600
21
70.632251
0
LINE
8
Layer_0
10
67.465600
20
70.632251
11
70.465595
21
70.632251
0
LINE
8
Layer_0
10
70.465595
20
70.632251
11
70.465595
21
78.132231
0
LINE
8
Layer_0
10
70.465595
20
78.132231
11
127.465523
21
78.132231
0
LINE
8
Layer_0
10
127.465523
20
78.132231
11
127.465523
21
70.632240
0
LINE
8
Layer_0
10
127.465523
20
70.632240
11
130.465519
21
70.632240
0
LINE
8
Layer_0
10
130.465519
20
70.632240
11
130.465519
21
63.132249
0
LINE
8
Layer_0
10
130.465519
20
63.132249
11
130.465519
21
55.632260
0
LINE
8
Layer_0
10
130.465519
20
55.632260
11
127.465523
21
55.632260
0
LINE
8
Layer_0
10
127.465523
20
55.632260
11
127.465523
21
25.632297
0
LINE
8
Layer_0
10
127.465523
20
25.632297
11
130.465519
21
25.632297
0
LINE
8
Layer_0
10
111.128894
20
52.835784
11
113.148911
21
54.254240
0
LINE
8
Layer_0
10
113.148911
20
54.254240
11
113.557350
21
54.662441
0
LINE
8
Layer_0
10
113.557350
20
54.662441
11
113.148911
21
55.285733
0
LINE
8
Layer_0
10
113.148911
20
55.285733
11
113.148911
21
56.703943
0
LINE
8
Layer_0
10
113.148911
20
56.703943
11
113.750710
21
57.305750
0
LINE
8
Layer_0
10
113.750710
20
57.305750
11
115.384007
21
57.090906
0
LINE
8
Layer_0
10
115.384007
20
57.090906
11
117.210667
21
55.479090
0
LINE
8
Layer_0
10
117.210667
20
55.479090
11
120.649140
21
57.907555
0
LINE
8
Layer_0
10
120.649140
20
57.907555
11
121.465551
21
59.927572
0
LINE
8
Layer_0
10
121.465551
20
59.927572
11
121.250702
21
61.969073
0
LINE
8
Layer_0
10
121.250702
20
61.969073
11
120.434053
21
62.979081
0
LINE
8
Layer_0
10
120.434053
20
62.979081
11
118.220676
21
63.989090
0
LINE
8
Layer_0
10
118.220676
20
63.989090
11
115.169169
21
63.387529
0
LINE
8
Layer_0
10
115.169169
20
63.387529
11
108.894027
21
61.969073
0
LINE
8
Layer_0
10
108.894027
20
61.969073
11
105.863761
21
60.744220
0
LINE
8
Layer_0
10
105.863761
20
60.744220
11
103.220693
21
58.724203
0
LINE
8
Layer_0
10
103.220693
20
58.724203
11
100.985596
21
55.887294
0
LINE
8
Layer_0
10
100.985596
20
55.887294
11
100.577387
21
53.652433
0
LINE
8
Layer_0
10
100.577387
20
53.652433
11
101.200435
21
52.040620
0
LINE
8
Layer_0
10
101.200435
20
52.040620
11
102.618894
21
50.622407
0
LINE
8
Layer_0
10
102.618894
20
50.622407
11
105.648922
21
50.622407
0
LINE
8
Layer_0
10
105.648922
20
50.622407
11
111.128894
21
52.835784
0
LINE
8
Layer_0
10
96.945562
20
48.989110
11
97.955571
21
50.815767
0
LINE
8
Layer_0
10
97.955571
20
50.815767
11
97.955571
21
54.469084
0
LINE
8
Layer_0
10
97.955571
20
54.469084
11
97.138922
21
56.080897
0
LINE
8
Layer_0
10
97.138922
20
56.080897
11
94.108896
21
57.090906
0
LINE
8
Layer_0
10
94.108896
20
57.090906
11
88.843761
21
58.724203
0
LINE
8
Layer_0
10
88.843761
20
58.724203
11
88.027112
21
59.325767
0
LINE
8
Layer_0
10
88.027112
20
59.325767
11
87.425305
21
59.325767
0
LINE
8
Layer_0
10
87.425305
20
59.325767
11
86.802265
21
59.927572
0
LINE
8
Layer_0
10
86.802265
20
59.927572
11
83.363789
21
60.744220
0
LINE
8
Layer_0
10
83.363789
20
60.744220
11
81.537132
21
61.345782
0
LINE
8
Layer_0
10
81.537132
20
61.345782
11
78.700464
21
60.959064
0
LINE
8
Layer_0
10
78.700464
20
60.959064
11
77.282008
21
60.142416
0
LINE
8
Layer_0
10
77.282008
20
60.142416
11
76.465608
21
58.509118
0
LINE
8
Layer_0
10
76.465608
20
58.509118
11
76.680446
21
56.080897
0
LINE
8
Layer_0
10
76.680446
20
56.080897
11
78.098656
21
53.867277
0
LINE
8
Layer_0
10
78.098656
20
53.867277
11
80.333763
21
52.835784
0
LINE
8
Layer_0
10
80.333763
20
52.835784
11
81.128931
21
52.835784
0
LINE
8
Layer_0
10
81.128931
20
52.835784
11
83.557149
21
55.070889
0
LINE
8
Layer_0
10
83.557149
20
55.070889
11
84.975608
21
55.070889
0
LINE
8
Layer_0
10
84.975608
20
55.070889
11
85.792256
21
53.867277
0
LINE
8
Layer_0
10
85.792256
20
53.867277
11
85.792256
21
50.815767
0
LINE
8
Layer_0
10
85.792256
20
50.815767
11
88.027112
21
49.805758
0
LINE
8
Layer_0
10
88.027112
20
49.805758
11
94.710455
21
48.193945
0
LINE
8
Layer_0
10
94.710455
20
48.193945
11
96.945562
21
48.989110
0
LINE
8
Layer_0
10
101.200435
20
38.652453
11
101.802245
21
39.060654
0
LINE
8
Layer_0
10
101.802245
20
39.060654
11
102.404044
21
40.693954
0
LINE
8
Layer_0
10
102.404044
20
40.693954
11
103.027095
21
41.102155
0
LINE
8
Layer_0
10
103.027095
20
41.102155
11
103.822262
21
41.102155
0
LINE
8
Layer_0
10
103.822262
20
41.102155
11
105.240710
21
39.683945
0
LINE
8
Layer_0
10
105.240710
20
39.683945
11
106.250719
21
39.683945
0
LINE
8
Layer_0
10
106.250719
20
39.683945
11
108.292228
21
40.693954
0
LINE
8
Layer_0
10
108.292228
20
40.693954
11
108.485588
21
41.295761
0
LINE
8
Layer_0
10
108.485588
20
41.295761
11
108.485588
21
41.897322
0
LINE
8
Layer_0
10
108.485588
20
41.897322
11
107.668939
21
43.315776
0
LINE
8
Layer_0
10
107.668939
20
43.315776
11
103.822262
21
46.367285
0
LINE
8
Layer_0
10
103.822262
20
46.367285
11
101.802245
21
46.969093
0
LINE
8
Layer_0
10
101.802245
20
46.969093
11
101.200435
21
47.570654
0
LINE
8
Layer_0
10
101.200435
20
47.570654
11
99.782228
21
46.775733
0
LINE
8
Layer_0
10
99.782228
20
46.775733
11
98.148931
21
43.723980
0
LINE
8
Layer_0
10
98.148931
20
43.723980
11
97.547121
21
40.070662
0
LINE
8
Layer_0
10
97.547121
20
40.070662
11
98.363769
21
38.050645
0
LINE
8
Layer_0
10
98.363769
20
38.050645
11
101.200435
21
38.652453
0
LINE
8
Layer_0
10
114.373999
20
24.683962
11
116.587376
21
25.693974
0
LINE
8
Layer_0
10
116.587376
20
25.693974
11
118.628885
21
27.928832
0
LINE
8
Layer_0
10
118.628885
20
27.928832
11
119.230684
21
29.540648
0
LINE
8
Layer_0
10
119.230684
20
29.540648
11
120.240693
21
33.795526
0
LINE
8
Layer_0
10
120.240693
20
33.795526
11
120.649140
21
39.275498
0
LINE
8
Layer_0
10
120.649140
20
39.275498
11
120.240693
21
40.887311
0
LINE
8
Layer_0
10
120.240693
20
40.887311
11
119.832492
21
41.489118
0
LINE
8
Layer_0
10
119.832492
20
41.489118
11
119.424044
21
44.540628
0
LINE
8
Layer_0
10
119.424044
20
44.540628
11
119.015843
21
45.357277
0
LINE
8
Layer_0
10
119.015843
20
45.357277
11
113.557350
21
39.683945
0
LINE
8
Layer_0
10
113.557350
20
39.683945
11
114.159160
21
37.040639
0
LINE
8
Layer_0
10
114.159160
20
37.040639
11
114.373999
21
34.805778
0
LINE
8
Layer_0
10
114.373999
20
34.805778
11
112.955551
21
33.602166
0
LINE
8
Layer_0
10
112.955551
20
33.602166
11
111.924053
21
33.602166
0
LINE
8
Layer_0
10
111.924053
20
33.602166
11
110.720684
21
35.428824
0
LINE
8
Layer_0
10
110.720684
20
35.428824
11
110.312245
21
37.040639
0
LINE
8
Layer_0
10
110.312245
20
37.040639
11
109.495596
21
37.642444
0
LINE
8
Layer_0
10
109.495596
20
37.642444
11
104.037352
21
34.805778
0
LINE
8
Layer_0
10
104.037352
20
34.805778
11
96.537112
21
34.010611
0
LINE
8
Layer_0
10
96.537112
20
34.010611
11
90.455579
21
34.010611
0
LINE
8
Layer_0
10
90.455579
20
34.010611
11
85.792256
21
35.428824
0
LINE
8
Layer_0
10
85.792256
20
35.428824
11
83.363789
21
36.847280
0
LINE
8
Layer_0
10
83.363789
20
36.847280
11
80.935322
21
38.867297
0
LINE
8
Layer_0
10
80.935322
20
38.867297
11
80.527123
21
38.458849
0
LINE
8
Layer_0
10
80.527123
20
38.458849
11
81.751971
21
36.632436
0
LINE
8
Layer_0
10
81.751971
20
36.632436
11
84.975608
21
33.387322
0
LINE
8
Layer_0
10
84.975608
20
33.387322
11
91.680429
21
29.540648
0
LINE
8
Layer_0
10
91.680429
20
29.540648
11
94.904053
21
28.337036
0
LINE
8
Layer_0
10
94.904053
20
28.337036
11
101.802245
21
27.928832
0
LINE
8
Layer_0
10
101.802245
20
27.928832
11
103.220693
21
28.122192
0
LINE
8
Layer_0
10
103.220693
20
28.122192
11
103.822262
21
28.122192
0
LINE
8
Layer_0
10
103.822262
20
28.122192
11
106.057359
21
24.877325
0
LINE
8
Layer_0
10
106.057359
20
24.877325
11
108.485588
21
24.275518
0
LINE
8
Layer_0
10
108.485588
20
24.275518
11
114.373999
21
24.683962
 0 
ENDSEC
 0 
EOF