999
"DXF R12 Output" (www.mydxf.blogspot.com)
 0 
SECTION
 2 
HEADER
 9 
$ACADVER
 1 
AC1009
 9 
$EXTMIN
 10 
 0 
 20 
 0 
 9 
$EXTMAX
 10 
 8.5 
 20 
 11 
 0 
ENDSEC
 0 
SECTION
 2 
ENTITIES
0
LINE
8
Layer 1
10
0.793749
20
84.418349
11
-0.793749
21
82.830851
0
LINE
8
Layer 1
10
0.000000
20
84.947515
11
0.000000
21
82.301685
0
LINE
8
Layer 1
10
2.116664
20
82.566268
11
1.058332
21
81.507936
0
LINE
8
Layer 1
10
1.587498
20
83.095434
11
0.529166
21
82.037102
0
LINE
8
Layer 1
10
1.058332
20
83.624600
11
0.000000
21
82.566268
0
LINE
8
Layer_0
10
106.554659
20
83.492307
11
106.554659
21
80.492309
0
LINE
8
Layer_0
10
106.554659
20
80.492309
11
161.454590
21
80.492309
0
LINE
8
Layer_0
10
161.454590
20
80.492309
11
161.454590
21
83.492307
0
LINE
8
Layer_0
10
161.454590
20
83.492307
11
174.004573
21
83.492307
0
LINE
8
Layer_0
10
174.004573
20
83.492307
11
174.004573
21
70.942324
0
LINE
8
Layer_0
10
174.004573
20
70.942324
11
171.004577
21
70.942324
0
LINE
8
Layer_0
10
171.004577
20
70.942324
11
171.004577
21
16.042198
0
LINE
8
Layer_0
10
171.004577
20
16.042198
11
174.004573
21
16.042198
0
LINE
8
Layer_0
10
174.004573
20
16.042198
11
174.004573
21
3.492206
0
LINE
8
Layer_0
10
174.004573
20
3.492206
11
161.454590
21
3.492206
0
LINE
8
Layer_0
10
161.454590
20
3.492206
11
161.454590
21
6.492207
0
LINE
8
Layer_0
10
161.454590
20
6.492207
11
106.554659
21
6.492207
0
LINE
8
Layer_0
10
106.554659
20
6.492207
11
106.554659
21
3.492206
0
LINE
8
Layer_0
10
106.554659
20
3.492206
11
94.004678
21
3.492206
0
LINE
8
Layer_0
10
94.004678
20
3.492206
11
94.004678
21
16.042198
0
LINE
8
Layer_0
10
94.004678
20
16.042198
11
97.004673
21
16.042198
0
LINE
8
Layer_0
10
97.004673
20
16.042198
11
97.004673
21
70.942324
0
LINE
8
Layer_0
10
97.004673
20
70.942324
11
94.004678
21
70.942324
0
LINE
8
Layer_0
10
94.004678
20
70.942324
11
94.004678
21
83.492307
0
LINE
8
Layer_0
10
94.004678
20
83.492307
11
106.554659
21
83.492307
0
LINE
8
Layer_0
10
284.749878
20
55.492264
11
284.749878
21
60.492248
0
LINE
8
Layer_0
10
284.749878
20
60.492248
11
281.749883
21
60.492248
0
LINE
8
Layer_0
10
281.749883
20
60.492248
11
281.749883
21
67.992250
0
LINE
8
Layer_0
10
281.749883
20
67.992250
11
294.249868
21
67.992250
0
LINE
8
Layer_0
10
294.249868
20
67.992250
11
294.249868
21
70.992250
0
LINE
8
Layer_0
10
294.249868
20
70.992250
11
349.249797
21
70.992250
0
LINE
8
Layer_0
10
349.249797
20
70.992250
11
349.249797
21
67.992250
0
LINE
8
Layer_0
10
349.249797
20
67.992250
11
361.749783
21
67.992250
0
LINE
8
Layer_0
10
361.749783
20
67.992250
11
361.749783
21
60.492248
0
LINE
8
Layer_0
10
361.749783
20
60.492248
11
358.749785
21
60.492248
0
LINE
8
Layer_0
10
358.749785
20
60.492248
11
358.749785
21
55.492264
0
LINE
8
Layer_0
10
358.749785
20
55.492264
11
361.749783
21
55.492264
0
LINE
8
Layer_0
10
361.749783
20
55.492264
11
361.749783
21
47.992262
0
LINE
8
Layer_0
10
361.749783
20
47.992262
11
349.249797
21
47.992262
0
LINE
8
Layer_0
10
349.249797
20
47.992262
11
349.249797
21
44.992261
0
LINE
8
Layer_0
10
349.249797
20
44.992261
11
294.249868
21
44.992261
0
LINE
8
Layer_0
10
294.249868
20
44.992261
11
294.249868
21
47.992262
0
LINE
8
Layer_0
10
294.249868
20
47.992262
11
281.749883
21
47.992262
0
LINE
8
Layer_0
10
281.749883
20
47.992262
11
281.749883
21
55.492264
0
LINE
8
Layer_0
10
281.749883
20
55.492264
11
284.749878
21
55.492264
0
LINE
8
Layer_0
10
314.749852
20
60.742252
11
328.749835
21
60.742252
0
LINE
8
Layer_0
10
328.749835
20
60.742252
11
328.749835
21
55.242259
0
LINE
8
Layer_0
10
328.749835
20
55.242259
11
314.749852
21
55.242259
0
LINE
8
Layer_0
10
314.749852
20
55.242259
11
314.749852
21
60.742252
0
LINE
8
Layer_0
10
281.749883
20
31.492284
11
281.749883
21
26.492300
0
LINE
8
Layer_0
10
281.749883
20
26.492300
11
284.749878
21
26.492300
0
LINE
8
Layer_0
10
284.749878
20
26.492300
11
284.749878
21
18.992298
0
LINE
8
Layer_0
10
284.749878
20
18.992298
11
294.249868
21
18.992298
0
LINE
8
Layer_0
10
294.249868
20
18.992298
11
294.249868
21
15.992324
0
LINE
8
Layer_0
10
294.249868
20
15.992324
11
349.249797
21
15.992324
0
LINE
8
Layer_0
10
349.249797
20
15.992324
11
349.249797
21
18.992298
0
LINE
8
Layer_0
10
349.249797
20
18.992298
11
358.749785
21
18.992298
0
LINE
8
Layer_0
10
358.749785
20
18.992298
11
358.749785
21
26.492300
0
LINE
8
Layer_0
10
358.749785
20
26.492300
11
361.749783
21
26.492300
0
LINE
8
Layer_0
10
361.749783
20
26.492300
11
361.749783
21
31.492284
0
LINE
8
Layer_0
10
361.749783
20
31.492284
11
358.749785
21
31.492284
0
LINE
8
Layer_0
10
358.749785
20
31.492284
11
358.749785
21
38.992286
0
LINE
8
Layer_0
10
358.749785
20
38.992286
11
349.249797
21
38.992286
0
LINE
8
Layer_0
10
349.249797
20
38.992286
11
349.249797
21
41.992287
0
LINE
8
Layer_0
10
349.249797
20
41.992287
11
294.249868
21
41.992287
0
LINE
8
Layer_0
10
294.249868
20
41.992287
11
294.249868
21
38.992286
0
LINE
8
Layer_0
10
294.249868
20
38.992286
11
284.749878
21
38.992286
0
LINE
8
Layer_0
10
284.749878
20
38.992286
11
284.749878
21
31.492284
0
LINE
8
Layer_0
10
284.749878
20
31.492284
11
281.749883
21
31.492284
0
LINE
8
Layer_0
10
67.582123
20
77.132338
11
12.682193
21
77.132338
0
LINE
8
Layer_0
10
12.682193
20
77.132338
11
12.682193
21
80.132334
0
LINE
8
Layer_0
10
12.682193
20
80.132334
11
0.132209
21
80.132334
0
LINE
8
Layer_0
10
0.132209
20
80.132334
11
0.132209
21
67.582358
0
LINE
8
Layer_0
10
0.132209
20
67.582358
11
3.132204
21
67.582358
0
LINE
8
Layer_0
10
3.132204
20
67.582358
11
3.132204
21
12.682417
0
LINE
8
Layer_0
10
3.132204
20
12.682417
11
0.132209
21
12.682417
0
LINE
8
Layer_0
10
0.132209
20
12.682417
11
0.132209
21
0.132425
0
LINE
8
Layer_0
10
0.132209
20
0.132425
11
12.682193
21
0.132425
0
LINE
8
Layer_0
10
12.682193
20
0.132425
11
12.682193
21
3.132426
0
LINE
8
Layer_0
10
12.682193
20
3.132426
11
67.582123
21
3.132426
0
LINE
8
Layer_0
10
67.582123
20
3.132426
11
67.582123
21
0.132425
0
LINE
8
Layer_0
10
67.582123
20
0.132425
11
80.132107
21
0.132425
0
LINE
8
Layer_0
10
80.132107
20
0.132425
11
80.132107
21
12.682417
0
LINE
8
Layer_0
10
80.132107
20
12.682417
11
77.132111
21
12.682417
0
LINE
8
Layer_0
10
77.132111
20
12.682417
11
77.132111
21
67.582358
0
LINE
8
Layer_0
10
77.132111
20
67.582358
11
80.132107
21
67.582358
0
LINE
8
Layer_0
10
80.132107
20
67.582358
11
80.132107
21
80.132334
0
LINE
8
Layer_0
10
80.132107
20
80.132334
11
67.582123
21
80.132334
0
LINE
8
Layer_0
10
67.582123
20
80.132334
11
67.582123
21
77.132338
0
LINE
8
Layer_0
10
15.132189
20
46.132376
11
15.132189
21
34.132372
0
LINE
8
Layer_0
10
15.132189
20
34.132372
11
65.132127
21
34.132372
0
LINE
8
Layer_0
10
65.132127
20
34.132372
11
65.132127
21
46.132376
0
LINE
8
Layer_0
10
65.132127
20
46.132376
11
15.132189
21
46.132376
0
LINE
8
Layer_0
10
27.532162
20
71.732342
11
27.532162
21
68.532343
0
LINE
8
Layer_0
10
27.532162
20
68.532343
11
52.732151
21
68.532343
0
LINE
8
Layer_0
10
52.732151
20
68.532343
11
52.732151
21
71.732342
0
LINE
8
Layer_0
10
52.732151
20
71.732342
11
27.532162
21
71.732342
0
LINE
8
Layer_0
10
8.532187
20
52.732372
11
8.532187
21
27.532402
0
LINE
8
Layer_0
10
8.532187
20
27.532402
11
11.732202
21
27.532402
0
LINE
8
Layer_0
10
11.732202
20
27.532402
11
11.732202
21
52.732372
0
LINE
8
Layer_0
10
11.732202
20
52.732372
11
8.532187
21
52.732372
0
LINE
8
Layer_0
10
27.532162
20
8.532433
11
27.532162
21
11.732432
0
LINE
8
Layer_0
10
27.532162
20
11.732432
11
52.732151
21
11.732432
0
LINE
8
Layer_0
10
52.732151
20
11.732432
11
52.732151
21
8.532433
0
LINE
8
Layer_0
10
52.732151
20
8.532433
11
27.532162
21
8.532433
0
LINE
8
Layer_0
10
68.532121
20
52.732372
11
68.532121
21
27.532402
0
LINE
8
Layer_0
10
68.532121
20
27.532402
11
71.732118
21
27.532402
0
LINE
8
Layer_0
10
71.732118
20
27.532402
11
71.732118
21
52.732372
0
LINE
8
Layer_0
10
71.732118
20
52.732372
11
68.532121
21
52.732372
0
LINE
8
Layer_0
10
264.877311
20
55.492158
11
264.877311
21
60.492168
0
LINE
8
Layer_0
10
264.877311
20
60.492168
11
267.877306
21
60.492168
0
LINE
8
Layer_0
10
267.877306
20
60.492168
11
267.877306
21
67.992355
0
LINE
8
Layer_0
10
267.877306
20
67.992355
11
255.377323
21
67.992355
0
LINE
8
Layer_0
10
255.377323
20
67.992355
11
255.377323
21
70.992356
0
LINE
8
Layer_0
10
255.377323
20
70.992356
11
200.377094
21
70.992356
0
LINE
8
Layer_0
10
200.377094
20
70.992356
11
200.377094
21
67.992355
0
LINE
8
Layer_0
10
200.377094
20
67.992355
11
187.877110
21
67.992355
0
LINE
8
Layer_0
10
187.877110
20
67.992355
11
187.877110
21
60.492168
0
LINE
8
Layer_0
10
187.877110
20
60.492168
11
190.877107
21
60.492168
0
LINE
8
Layer_0
10
190.877107
20
60.492168
11
190.877107
21
55.492158
0
LINE
8
Layer_0
10
190.877107
20
55.492158
11
187.877110
21
55.492158
0
LINE
8
Layer_0
10
187.877110
20
55.492158
11
187.877110
21
47.992182
0
LINE
8
Layer_0
10
187.877110
20
47.992182
11
200.377094
21
47.992182
0
LINE
8
Layer_0
10
200.377094
20
47.992182
11
200.377094
21
44.992182
0
LINE
8
Layer_0
10
200.377094
20
44.992182
11
255.377323
21
44.992182
0
LINE
8
Layer_0
10
255.377323
20
44.992182
11
255.377323
21
47.992182
0
LINE
8
Layer_0
10
255.377323
20
47.992182
11
267.877306
21
47.992182
0
LINE
8
Layer_0
10
267.877306
20
47.992182
11
267.877306
21
55.492158
0
LINE
8
Layer_0
10
267.877306
20
55.492158
11
264.877311
21
55.492158
0
LINE
8
Layer_0
10
267.877306
20
31.492204
11
267.877306
21
26.492194
0
LINE
8
Layer_0
10
267.877306
20
26.492194
11
264.877311
21
26.492194
0
LINE
8
Layer_0
10
264.877311
20
26.492194
11
264.877311
21
18.992219
0
LINE
8
Layer_0
10
264.877311
20
18.992219
11
255.377323
21
18.992219
0
LINE
8
Layer_0
10
255.377323
20
18.992219
11
255.377323
21
15.992218
0
LINE
8
Layer_0
10
255.377323
20
15.992218
11
200.377094
21
15.992218
0
LINE
8
Layer_0
10
200.377094
20
15.992218
11
200.377094
21
18.992219
0
LINE
8
Layer_0
10
200.377094
20
18.992219
11
190.877107
21
18.992219
0
LINE
8
Layer_0
10
190.877107
20
18.992219
11
190.877107
21
26.492194
0
LINE
8
Layer_0
10
190.877107
20
26.492194
11
187.877110
21
26.492194
0
LINE
8
Layer_0
10
187.877110
20
26.492194
11
187.877110
21
31.492204
0
LINE
8
Layer_0
10
187.877110
20
31.492204
11
190.877107
21
31.492204
0
LINE
8
Layer_0
10
190.877107
20
31.492204
11
190.877107
21
38.992180
0
LINE
8
Layer_0
10
190.877107
20
38.992180
11
200.377094
21
38.992180
0
LINE
8
Layer_0
10
200.377094
20
38.992180
11
200.377094
21
41.992181
0
LINE
8
Layer_0
10
200.377094
20
41.992181
11
255.377323
21
41.992181
0
LINE
8
Layer_0
10
255.377323
20
41.992181
11
255.377323
21
38.992180
0
LINE
8
Layer_0
10
255.377323
20
38.992180
11
264.877311
21
38.992180
0
LINE
8
Layer_0
10
264.877311
20
38.992180
11
264.877311
21
31.492204
0
LINE
8
Layer_0
10
264.877311
20
31.492204
11
267.877306
21
31.492204
 0 
ENDSEC
 0 
EOF