999
"DXF R12 Output" (www.mydxf.blogspot.com)
 0 
SECTION
 2 
HEADER
 9 
$ACADVER
 1 
AC1009
 9 
$EXTMIN
 10 
 0 
 20 
 0 
 9 
$EXTMAX
 10 
 8.5 
 20 
 11 
 0 
ENDSEC
 0 
SECTION
 2 
ENTITIES
0
LINE
8
Layer 1
10
0.793749
20
79.058349
11
-0.793749
21
77.470851
0
LINE
8
Layer 1
10
0.000000
20
79.587515
11
0.000000
21
76.941685
0
LINE
8
Layer 1
10
2.116664
20
77.206268
11
1.058332
21
76.147936
0
LINE
8
Layer 1
10
1.587498
20
77.735434
11
0.529166
21
76.677102
0
LINE
8
Layer 1
10
1.058332
20
78.264600
11
0.000000
21
77.206268
0
LINE
8
Layer_1
10
60.132529
20
70.782251
11
60.132507
21
55.482265
0
LINE
8
Layer_1
10
60.132507
20
55.482265
11
63.132503
21
55.482265
0
LINE
8
Layer_1
10
63.132503
20
55.482265
11
63.132503
21
25.782302
0
LINE
8
Layer_1
10
63.132503
20
25.782302
11
60.132507
21
25.782302
0
LINE
8
Layer_1
10
60.132507
20
25.782302
11
60.132507
21
10.482322
0
LINE
8
Layer_1
10
60.132507
20
10.482322
11
63.132503
21
10.482322
0
LINE
8
Layer_1
10
63.132503
20
10.482322
11
63.132503
21
3.132328
0
LINE
8
Layer_1
10
63.132503
20
3.132328
11
44.132528
21
3.132328
0
LINE
8
Layer_1
10
44.132528
20
3.132328
11
44.132528
21
0.132332
0
LINE
8
Layer_1
10
44.132528
20
0.132332
11
19.132570
21
0.132338
0
LINE
8
Layer_1
10
19.132570
20
0.132338
11
19.132570
21
3.132333
0
LINE
8
Layer_1
10
19.132570
20
3.132333
11
0.132198
21
3.132333
0
LINE
8
Layer_1
10
0.132198
20
3.132333
11
0.132198
21
10.482327
0
LINE
8
Layer_1
10
0.132198
20
10.482327
11
3.132193
21
10.482327
0
LINE
8
Layer_1
10
3.132193
20
10.482327
11
3.132193
21
25.782305
0
LINE
8
Layer_1
10
3.132193
20
25.782305
11
0.132198
21
25.782305
0
LINE
8
Layer_1
10
0.132198
20
25.782305
11
0.132198
21
55.482265
0
LINE
8
Layer_1
10
0.132198
20
55.482265
11
3.132193
21
55.482265
0
LINE
8
Layer_1
10
3.132193
20
55.482265
11
3.132193
21
70.782251
0
LINE
8
Layer_1
10
3.132193
20
70.782251
11
0.132198
21
70.782251
0
LINE
8
Layer_1
10
0.132198
20
70.782251
11
0.132198
21
78.132239
0
LINE
8
Layer_1
10
0.132198
20
78.132239
11
63.132524
21
78.132231
0
LINE
8
Layer_1
10
63.132524
20
78.132231
11
63.132524
21
70.782251
0
LINE
8
Layer_1
10
63.132524
20
70.782251
11
60.132529
21
70.782251
0
LINE
8
Layer_1
10
202.132142
20
25.632305
11
202.132142
21
10.632324
0
LINE
8
Layer_1
10
202.132142
20
10.632324
11
205.132143
21
10.632324
0
LINE
8
Layer_1
10
205.132143
20
10.632324
11
205.132143
21
3.132333
0
LINE
8
Layer_1
10
205.132143
20
3.132333
11
221.132112
21
3.132333
0
LINE
8
Layer_1
10
221.132112
20
3.132333
11
221.132112
21
0.132338
0
LINE
8
Layer_1
10
221.132112
20
0.132338
11
246.132084
21
0.132332
0
LINE
8
Layer_1
10
246.132084
20
0.132332
11
246.132084
21
3.132328
0
LINE
8
Layer_1
10
246.132084
20
3.132328
11
262.132079
21
3.132328
0
LINE
8
Layer_1
10
262.132079
20
3.132328
11
262.132079
21
10.632317
0
LINE
8
Layer_1
10
262.132079
20
10.632317
11
265.132080
21
10.632317
0
LINE
8
Layer_1
10
265.132080
20
10.632317
11
265.132080
21
25.632297
0
LINE
8
Layer_1
10
265.132080
20
25.632297
11
262.132079
21
25.632297
0
LINE
8
Layer_1
10
262.132079
20
25.632297
11
262.132079
21
55.632260
0
LINE
8
Layer_1
10
262.132079
20
55.632260
11
265.132080
21
55.632260
0
LINE
8
Layer_1
10
265.132080
20
55.632260
11
265.132080
21
70.632240
0
LINE
8
Layer_1
10
265.132080
20
70.632240
11
262.132079
21
70.632240
0
LINE
8
Layer_1
10
262.132079
20
70.632240
11
262.132079
21
78.132231
0
LINE
8
Layer_1
10
262.132079
20
78.132231
11
205.132143
21
78.132239
0
LINE
8
Layer_1
10
205.132143
20
78.132239
11
205.132143
21
70.632251
0
LINE
8
Layer_1
10
205.132143
20
70.632251
11
202.132142
21
70.632251
0
LINE
8
Layer_1
10
202.132142
20
70.632251
11
202.132142
21
63.132257
0
LINE
8
Layer_1
10
202.132142
20
63.132257
11
202.132142
21
55.632268
0
LINE
8
Layer_1
10
202.132142
20
55.632268
11
205.132143
21
55.632268
0
LINE
8
Layer_1
10
205.132143
20
55.632268
11
205.132143
21
25.632305
0
LINE
8
Layer_1
10
205.132143
20
25.632305
11
202.132142
21
25.632305
0
LINE
8
Layer_0
10
130.465519
20
25.632297
11
130.465519
21
10.632317
0
LINE
8
Layer_0
10
130.465519
20
10.632317
11
127.465523
21
10.632317
0
LINE
8
Layer_0
10
127.465523
20
10.632317
11
127.465523
21
3.132325
0
LINE
8
Layer_0
10
127.465523
20
3.132325
11
111.465544
21
3.132325
0
LINE
8
Layer_0
10
111.465544
20
3.132325
11
111.465544
21
0.132330
0
LINE
8
Layer_0
10
111.465544
20
0.132330
11
86.465575
21
0.132332
0
LINE
8
Layer_0
10
86.465575
20
0.132332
11
86.465575
21
3.132328
0
LINE
8
Layer_0
10
86.465575
20
3.132328
11
70.465595
21
3.132328
0
LINE
8
Layer_0
10
70.465595
20
3.132328
11
70.465595
21
10.632324
0
LINE
8
Layer_0
10
70.465595
20
10.632324
11
67.465600
21
10.632324
0
LINE
8
Layer_0
10
67.465600
20
10.632324
11
67.465600
21
25.632305
0
LINE
8
Layer_0
10
67.465600
20
25.632305
11
70.465595
21
25.632305
0
LINE
8
Layer_0
10
70.465595
20
25.632305
11
70.465595
21
55.632268
0
LINE
8
Layer_0
10
70.465595
20
55.632268
11
67.465600
21
55.632268
0
LINE
8
Layer_0
10
67.465600
20
55.632268
11
67.465600
21
70.632251
0
LINE
8
Layer_0
10
67.465600
20
70.632251
11
70.465595
21
70.632251
0
LINE
8
Layer_0
10
70.465595
20
70.632251
11
70.465595
21
78.132231
0
LINE
8
Layer_0
10
70.465595
20
78.132231
11
127.465523
21
78.132231
0
LINE
8
Layer_0
10
127.465523
20
78.132231
11
127.465523
21
70.632240
0
LINE
8
Layer_0
10
127.465523
20
70.632240
11
130.465519
21
70.632240
0
LINE
8
Layer_0
10
130.465519
20
70.632240
11
130.465519
21
63.132249
0
LINE
8
Layer_0
10
130.465519
20
63.132249
11
130.465519
21
55.632260
0
LINE
8
Layer_0
10
130.465519
20
55.632260
11
127.465523
21
55.632260
0
LINE
8
Layer_0
10
127.465523
20
55.632260
11
127.465523
21
25.632297
0
LINE
8
Layer_0
10
127.465523
20
25.632297
11
130.465519
21
25.632297
0
LINE
8
Layer_0
10
137.798630
20
70.782240
11
137.798609
21
55.482257
0
LINE
8
Layer_0
10
137.798609
20
55.482257
11
134.798613
21
55.482159
0
LINE
8
Layer_0
10
134.798613
20
55.482159
11
134.798613
21
25.782196
0
LINE
8
Layer_0
10
134.798613
20
25.782196
11
137.798609
21
25.782294
0
LINE
8
Layer_0
10
137.798609
20
25.782294
11
137.798720
21
10.482314
0
LINE
8
Layer_0
10
137.798720
20
10.482314
11
134.798724
21
10.482216
0
LINE
8
Layer_0
10
134.798724
20
10.482216
11
134.798724
21
3.132227
0
LINE
8
Layer_0
10
134.798724
20
3.132227
11
153.798699
21
3.132322
0
LINE
8
Layer_0
10
153.798699
20
3.132322
11
153.798699
21
0.132324
0
LINE
8
Layer_0
10
153.798699
20
0.132324
11
178.798668
21
0.132324
0
LINE
8
Layer_0
10
178.798668
20
0.132324
11
178.798668
21
3.132322
0
LINE
8
Layer_0
10
178.798668
20
3.132322
11
197.799067
21
3.132317
0
LINE
8
Layer_0
10
197.799067
20
3.132317
11
197.799067
21
10.482306
0
LINE
8
Layer_0
10
197.799067
20
10.482306
11
194.799066
21
10.482306
0
LINE
8
Layer_0
10
194.799066
20
10.482306
11
194.799066
21
25.782291
0
LINE
8
Layer_0
10
194.799066
20
25.782291
11
197.799067
21
25.782291
0
LINE
8
Layer_0
10
197.799067
20
25.782291
11
197.799067
21
55.482249
0
LINE
8
Layer_0
10
197.799067
20
55.482249
11
194.799092
21
55.482249
0
LINE
8
Layer_0
10
194.799092
20
55.482249
11
194.799092
21
70.782229
0
LINE
8
Layer_0
10
194.799092
20
70.782229
11
197.799067
21
70.782229
0
LINE
8
Layer_0
10
197.799067
20
70.782229
11
197.799067
21
78.132221
0
LINE
8
Layer_0
10
197.799067
20
78.132221
11
134.799666
21
78.132131
0
LINE
8
Layer_0
10
134.799666
20
78.132131
11
134.799666
21
70.782139
0
LINE
8
Layer_0
10
134.799666
20
70.782139
11
137.799662
21
70.782240
 0 
ENDSEC
 0 
EOF