999
"DXF R12 Output" (www.mydxf.blogspot.com)
 0 
SECTION
 2 
HEADER
 9 
$ACADVER
 1 
AC1009
 9 
$EXTMIN
 10 
 0 
 20 
 0 
 9 
$EXTMAX
 10 
 8.5 
 20 
 11 
 0 
ENDSEC
 0 
SECTION
 2 
ENTITIES
0
LINE
8
Layer 1
10
0.793749
20
103.275749
11
-0.793749
21
101.688251
0
LINE
8
Layer 1
10
0.000000
20
103.804915
11
0.000000
21
101.159085
0
LINE
8
Layer 1
10
2.116664
20
101.423668
11
1.058332
21
100.365336
0
LINE
8
Layer 1
10
1.587498
20
101.952834
11
0.529166
21
100.894502
0
LINE
8
Layer 1
10
1.058332
20
102.482000
11
0.000000
21
101.423668
0
LINE
8
Layer_0
10
147.659233
20
100.849747
11
147.659233
21
102.349745
0
LINE
8
Layer_0
10
147.659233
20
102.349745
11
172.659202
21
102.349745
0
LINE
8
Layer_0
10
172.659202
20
102.349745
11
172.659202
21
100.849747
0
LINE
8
Layer_0
10
172.659202
20
100.849747
11
191.659174
21
100.849747
0
LINE
8
Layer_0
10
191.659174
20
100.849747
11
188.398771
21
85.440917
0
LINE
8
Layer_0
10
188.398771
20
85.440917
11
185.463778
21
86.061915
0
LINE
8
Layer_0
10
185.463778
20
86.061915
11
182.358579
21
71.386853
0
LINE
8
Layer_0
10
182.358579
20
71.386853
11
185.293678
21
70.765856
0
LINE
8
Layer_0
10
185.293678
20
70.765856
11
176.714188
21
30.219096
0
LINE
8
Layer_0
10
176.714188
20
30.219096
11
173.779200
21
30.840095
0
LINE
8
Layer_0
10
173.779200
20
30.840095
11
170.674096
21
16.165034
0
LINE
8
Layer_0
10
170.674096
20
16.165034
11
173.609092
21
15.544035
0
LINE
8
Layer_0
10
173.609092
20
15.544035
11
170.659206
21
1.602732
0
LINE
8
Layer_0
10
170.659206
20
1.602732
11
149.659211
21
1.602732
0
LINE
8
Layer_0
10
149.659211
20
1.602732
11
146.709324
21
15.544035
0
LINE
8
Layer_0
10
146.709324
20
15.544035
11
149.644323
21
16.165034
0
LINE
8
Layer_0
10
149.644323
20
16.165034
11
146.539227
21
30.840095
0
LINE
8
Layer_0
10
146.539227
20
30.840095
11
143.604229
21
30.219096
0
LINE
8
Layer_0
10
143.604229
20
30.219096
11
135.024741
21
70.765856
0
LINE
8
Layer_0
10
135.024741
20
70.765856
11
137.959848
21
71.386853
0
LINE
8
Layer_0
10
137.959848
20
71.386853
11
134.854651
21
86.061947
0
LINE
8
Layer_0
10
134.854651
20
86.061947
11
131.919664
21
85.440946
0
LINE
8
Layer_0
10
131.919664
20
85.440946
11
128.659258
21
100.849747
0
LINE
8
Layer_0
10
128.659258
20
100.849747
11
147.659233
21
100.849747
0
LINE
8
Layer_0
10
128.827088
20
1.632241
11
128.827088
21
0.132243
0
LINE
8
Layer_0
10
128.827088
20
0.132243
11
103.827119
21
0.132243
0
LINE
8
Layer_0
10
103.827119
20
0.132243
11
103.827119
21
1.632241
0
LINE
8
Layer_0
10
103.827119
20
1.632241
11
87.827140
21
1.632241
0
LINE
8
Layer_0
10
87.827140
20
1.632241
11
90.958945
21
16.433434
0
LINE
8
Layer_0
10
90.958945
20
16.433434
11
87.958950
21
17.068233
0
LINE
8
Layer_0
10
87.958950
20
17.068233
11
91.064157
21
31.743324
0
LINE
8
Layer_0
10
91.064157
20
31.743324
11
94.064152
21
31.108495
0
LINE
8
Layer_0
10
94.064152
20
31.108495
11
102.643531
21
71.655355
0
LINE
8
Layer_0
10
102.643531
20
71.655355
11
99.643536
21
72.290052
0
LINE
8
Layer_0
10
99.643536
20
72.290052
11
102.748631
21
86.965146
0
LINE
8
Layer_0
10
102.748631
20
86.965146
11
105.748627
21
86.330355
0
LINE
8
Layer_0
10
105.748627
20
86.330355
11
108.827132
21
100.879256
0
LINE
8
Layer_0
10
108.827132
20
100.879256
11
123.827115
21
100.879256
0
LINE
8
Layer_0
10
123.827115
20
100.879256
11
126.905512
21
86.330355
0
LINE
8
Layer_0
10
126.905512
20
86.330355
11
129.905507
21
86.965146
0
LINE
8
Layer_0
10
129.905507
20
86.965146
11
133.010693
21
72.290052
0
LINE
8
Layer_0
10
133.010693
20
72.290052
11
130.010698
21
71.655355
0
LINE
8
Layer_0
10
130.010698
20
71.655355
11
138.590077
21
31.108495
0
LINE
8
Layer_0
10
138.590077
20
31.108495
11
141.590072
21
31.743294
0
LINE
8
Layer_0
10
141.590072
20
31.743294
11
144.695168
21
17.068233
0
LINE
8
Layer_0
10
144.695168
20
17.068233
11
141.695172
21
16.433404
0
LINE
8
Layer_0
10
141.695172
20
16.433404
11
144.827068
21
1.632241
0
LINE
8
Layer_0
10
144.827068
20
1.632241
11
128.827088
21
1.632241
0
LINE
8
Layer_0
10
59.995056
20
100.849747
11
59.995056
21
102.349745
0
LINE
8
Layer_0
10
59.995056
20
102.349745
11
84.995022
21
102.349745
0
LINE
8
Layer_0
10
84.995022
20
102.349745
11
84.995022
21
100.849747
0
LINE
8
Layer_0
10
84.995022
20
100.849747
11
103.995000
21
100.849747
0
LINE
8
Layer_0
10
103.995000
20
100.849747
11
100.734594
21
85.440917
0
LINE
8
Layer_0
10
100.734594
20
85.440917
11
97.799596
21
86.061915
0
LINE
8
Layer_0
10
97.799596
20
86.061915
11
94.694410
21
71.386853
0
LINE
8
Layer_0
10
94.694410
20
71.386853
11
97.629498
21
70.765856
0
LINE
8
Layer_0
10
97.629498
20
70.765856
11
89.050008
21
30.219096
0
LINE
8
Layer_0
10
89.050008
20
30.219096
11
86.115013
21
30.840095
0
LINE
8
Layer_0
10
86.115013
20
30.840095
11
83.009917
21
16.165034
0
LINE
8
Layer_0
10
83.009917
20
16.165034
11
85.944912
21
15.544035
0
LINE
8
Layer_0
10
85.944912
20
15.544035
11
82.995005
21
1.602732
0
LINE
8
Layer_0
10
82.995005
20
1.602732
11
61.995031
21
1.602732
0
LINE
8
Layer_0
10
61.995031
20
1.602732
11
59.045145
21
15.544035
0
LINE
8
Layer_0
10
59.045145
20
15.544035
11
61.980143
21
16.165034
0
LINE
8
Layer_0
10
61.980143
20
16.165034
11
58.875047
21
30.840095
0
LINE
8
Layer_0
10
58.875047
20
30.840095
11
55.940049
21
30.219096
0
LINE
8
Layer_0
10
55.940049
20
30.219096
11
47.360562
21
70.765856
0
LINE
8
Layer_0
10
47.360562
20
70.765856
11
50.295666
21
71.386853
0
LINE
8
Layer_0
10
50.295666
20
71.386853
11
47.190472
21
86.061947
0
LINE
8
Layer_0
10
47.190472
20
86.061947
11
44.255463
21
85.440946
0
LINE
8
Layer_0
10
44.255463
20
85.440946
11
40.995078
21
100.849747
0
LINE
8
Layer_0
10
40.995078
20
100.849747
11
59.995056
21
100.849747
0
LINE
8
Layer_0
10
41.162927
20
1.632241
11
41.162927
21
0.132243
0
LINE
8
Layer_0
10
41.162927
20
0.132243
11
16.162961
21
0.132243
0
LINE
8
Layer_0
10
16.162961
20
0.132243
11
16.162961
21
1.632241
0
LINE
8
Layer_0
10
16.162961
20
1.632241
11
0.162976
21
1.632241
0
LINE
8
Layer_0
10
0.162976
20
1.632241
11
3.294776
21
16.433434
0
LINE
8
Layer_0
10
3.294776
20
16.433434
11
0.294781
21
17.068233
0
LINE
8
Layer_0
10
0.294781
20
17.068233
11
3.399977
21
31.743324
0
LINE
8
Layer_0
10
3.399977
20
31.743324
11
6.399975
21
31.108495
0
LINE
8
Layer_0
10
6.399975
20
31.108495
11
14.979362
21
71.655355
0
LINE
8
Layer_0
10
14.979362
20
71.655355
11
11.979367
21
72.290052
0
LINE
8
Layer_0
10
11.979367
20
72.290052
11
15.084460
21
86.965146
0
LINE
8
Layer_0
10
15.084460
20
86.965146
11
18.084458
21
86.330355
0
LINE
8
Layer_0
10
18.084458
20
86.330355
11
21.162963
21
100.879256
0
LINE
8
Layer_0
10
21.162963
20
100.879256
11
36.162943
21
100.879256
0
LINE
8
Layer_0
10
36.162943
20
100.879256
11
39.241340
21
86.330355
0
LINE
8
Layer_0
10
39.241340
20
86.330355
11
42.241336
21
86.965146
0
LINE
8
Layer_0
10
42.241336
20
86.965146
11
45.346524
21
72.290052
0
LINE
8
Layer_0
10
45.346524
20
72.290052
11
42.346526
21
71.655355
0
LINE
8
Layer_0
10
42.346526
20
71.655355
11
50.925915
21
31.108495
0
LINE
8
Layer_0
10
50.925915
20
31.108495
11
53.925914
21
31.743294
0
LINE
8
Layer_0
10
53.925914
20
31.743294
11
57.031009
21
17.068233
0
LINE
8
Layer_0
10
57.031009
20
17.068233
11
54.031011
21
16.433404
0
LINE
8
Layer_0
10
54.031011
20
16.433404
11
57.162909
21
1.632241
0
LINE
8
Layer_0
10
57.162909
20
1.632241
11
41.162927
21
1.632241
 0 
ENDSEC
 0 
EOF