  0
SECTION
  2
HEADER
  9
$ACADVER
  1
AC1009
  0
ENDSEC
  0
SECTION
  2
ENTITIES
  0
POLYLINE
  5
90
  8
Layer_0
  62
0
  66
1
  10
0
  20
0
  30
0
  0
VERTEX
  5
90
  8
Layer_0
  10
-74.386436
  20
41.679985
  0
VERTEX
  5
91
  8
Layer_0
  10
-74.386436
  20
38.679985
  0
VERTEX
  5
92
  8
Layer_0
  10
-19.486435
  20
38.679985
  0
VERTEX
  5
93
  8
Layer_0
  10
-19.486435
  20
41.679985
  0
VERTEX
  5
94
  8
Layer_0
  10
-6.9364357
  20
41.679985
  0
VERTEX
  5
95
  8
Layer_0
  10
-6.9364357
  20
29.129982
  0
VERTEX
  5
96
  8
Layer_0
  10
-9.9364357
  20
29.129982
  0
VERTEX
  5
97
  8
Layer_0
  10
-9.9364357
  20
-25.770214
  0
VERTEX
  5
98
  8
Layer_0
  10
-6.9364357
  20
-25.770214
  0
VERTEX
  5
99
  8
Layer_0
  10
-6.9364357
  20
-38.320213
  0
VERTEX
  5
9a
  8
Layer_0
  10
-19.486435
  20
-38.320213
  0
VERTEX
  5
9b
  8
Layer_0
  10
-19.486435
  20
-35.320213
  0
VERTEX
  5
9c
  8
Layer_0
  10
-74.386436
  20
-35.320213
  0
VERTEX
  5
9d
  8
Layer_0
  10
-74.386436
  20
-38.320213
  0
VERTEX
  5
9e
  8
Layer_0
  10
-86.936432
  20
-38.320213
  0
VERTEX
  5
9f
  8
Layer_0
  10
-86.936432
  20
-25.770214
  0
VERTEX
  5
a0
  8
Layer_0
  10
-83.936432
  20
-25.770214
  0
VERTEX
  5
a1
  8
Layer_0
  10
-83.936432
  20
29.129982
  0
VERTEX
  5
a2
  8
Layer_0
  10
-86.936432
  20
29.129982
  0
VERTEX
  5
a3
  8
Layer_0
  10
-86.936432
  20
41.679985
  0
VERTEX
  5
a4
  8
Layer_0
  10
-74.386436
  20
41.679985
  0
SEQEND
  0
POLYLINE
  5
a6
  8
Layer_0
  62
0
  66
1
  10
0
  20
0
  30
0
  0
VERTEX
  5
a6
  8
Layer_0
  10
103.80901
  20
13.679901
  0
VERTEX
  5
a7
  8
Layer_0
  10
103.80901
  20
18.679901
  0
VERTEX
  5
a8
  8
Layer_0
  10
100.80901
  20
18.679901
  0
VERTEX
  5
a9
  8
Layer_0
  10
100.80901
  20
26.179901
  0
VERTEX
  5
aa
  8
Layer_0
  10
113.30901
  20
26.179901
  0
VERTEX
  5
ab
  8
Layer_0
  10
113.30901
  20
29.179901
  0
VERTEX
  5
ac
  8
Layer_0
  10
168.30901
  20
29.179901
  0
VERTEX
  5
ad
  8
Layer_0
  10
168.30901
  20
26.179901
  0
VERTEX
  5
ae
  8
Layer_0
  10
180.80901
  20
26.179901
  0
VERTEX
  5
af
  8
Layer_0
  10
180.80901
  20
18.679901
  0
VERTEX
  5
b0
  8
Layer_0
  10
177.80901
  20
18.679901
  0
VERTEX
  5
b1
  8
Layer_0
  10
177.80901
  20
13.679901
  0
VERTEX
  5
b2
  8
Layer_0
  10
180.80901
  20
13.679901
  0
VERTEX
  5
b3
  8
Layer_0
  10
180.80901
  20
6.1799011
  0
VERTEX
  5
b4
  8
Layer_0
  10
168.30901
  20
6.1799011
  0
VERTEX
  5
b5
  8
Layer_0
  10
168.30901
  20
3.1799011
  0
VERTEX
  5
b6
  8
Layer_0
  10
113.30901
  20
3.1799011
  0
VERTEX
  5
b7
  8
Layer_0
  10
113.30901
  20
6.1799011
  0
VERTEX
  5
b8
  8
Layer_0
  10
100.80901
  20
6.1799011
  0
VERTEX
  5
b9
  8
Layer_0
  10
100.80901
  20
13.679901
  0
VERTEX
  5
ba
  8
Layer_0
  10
103.80901
  20
13.679901
  0
SEQEND
  0
POLYLINE
  5
bc
  8
Layer_0
  62
0
  66
1
  10
0
  20
0
  30
0
  0
VERTEX
  5
bc
  8
Layer_0
  10
133.80902
  20
18.929901
  0
VERTEX
  5
bd
  8
Layer_0
  10
147.80902
  20
18.929901
  0
VERTEX
  5
be
  8
Layer_0
  10
147.80902
  20
13.429901
  0
VERTEX
  5
bf
  8
Layer_0
  10
133.80902
  20
13.429901
  0
VERTEX
  5
c0
  8
Layer_0
  10
133.80902
  20
18.929901
  0
SEQEND
  0
POLYLINE
  5
c2
  8
Layer_0
  62
0
  66
1
  10
0
  20
0
  30
0
  0
VERTEX
  5
c2
  8
Layer_0
  10
100.80901
  20
-10.320095
  0
VERTEX
  5
c3
  8
Layer_0
  10
100.80901
  20
-15.320095
  0
VERTEX
  5
c4
  8
Layer_0
  10
103.80901
  20
-15.320095
  0
VERTEX
  5
c5
  8
Layer_0
  10
103.80901
  20
-22.820095
  0
VERTEX
  5
c6
  8
Layer_0
  10
113.30901
  20
-22.820095
  0
VERTEX
  5
c7
  8
Layer_0
  10
113.30901
  20
-25.820095
  0
VERTEX
  5
c8
  8
Layer_0
  10
168.30901
  20
-25.820095
  0
VERTEX
  5
c9
  8
Layer_0
  10
168.30901
  20
-22.820095
  0
VERTEX
  5
ca
  8
Layer_0
  10
177.80901
  20
-22.820095
  0
VERTEX
  5
cb
  8
Layer_0
  10
177.80901
  20
-15.320095
  0
VERTEX
  5
cc
  8
Layer_0
  10
180.80901
  20
-15.320095
  0
VERTEX
  5
cd
  8
Layer_0
  10
180.80901
  20
-10.320095
  0
VERTEX
  5
ce
  8
Layer_0
  10
177.80901
  20
-10.320095
  0
VERTEX
  5
cf
  8
Layer_0
  10
177.80901
  20
-2.8200989
  0
VERTEX
  5
d0
  8
Layer_0
  10
168.30901
  20
-2.8200989
  0
VERTEX
  5
d1
  8
Layer_0
  10
168.30901
  20
0.17990112
  0
VERTEX
  5
d2
  8
Layer_0
  10
113.30901
  20
0.17990112
  0
VERTEX
  5
d3
  8
Layer_0
  10
113.30901
  20
-2.8200989
  0
VERTEX
  5
d4
  8
Layer_0
  10
103.80901
  20
-2.8200989
  0
VERTEX
  5
d5
  8
Layer_0
  10
103.80901
  20
-10.320095
  0
VERTEX
  5
d6
  8
Layer_0
  10
100.80901
  20
-10.320095
  0
SEQEND
  0
POLYLINE
  5
d8
  8
Layer_0
  62
0
  66
1
  10
0
  20
0
  30
0
  0
VERTEX
  5
d8
  8
Layer_0
  10
-113.35902
  20
35.320007
  0
VERTEX
  5
d9
  8
Layer_0
  10
-168.25902
  20
35.320007
  0
VERTEX
  5
da
  8
Layer_0
  10
-168.25902
  20
38.320007
  0
VERTEX
  5
db
  8
Layer_0
  10
-180.80902
  20
38.320007
  0
VERTEX
  5
dc
  8
Layer_0
  10
-180.80902
  20
25.770008
  0
VERTEX
  5
dd
  8
Layer_0
  10
-177.80902
  20
25.770008
  0
VERTEX
  5
de
  8
Layer_0
  10
-177.80902
  20
-29.129992
  0
VERTEX
  5
df
  8
Layer_0
  10
-180.80902
  20
-29.129992
  0
VERTEX
  5
e0
  8
Layer_0
  10
-180.80902
  20
-41.679993
  0
VERTEX
  5
e1
  8
Layer_0
  10
-168.25902
  20
-41.679993
  0
VERTEX
  5
e2
  8
Layer_0
  10
-168.25902
  20
-38.679993
  0
VERTEX
  5
e3
  8
Layer_0
  10
-113.35902
  20
-38.679993
  0
VERTEX
  5
e4
  8
Layer_0
  10
-113.35902
  20
-41.679993
  0
VERTEX
  5
e5
  8
Layer_0
  10
-100.80902
  20
-41.679993
  0
VERTEX
  5
e6
  8
Layer_0
  10
-100.80902
  20
-29.129992
  0
VERTEX
  5
e7
  8
Layer_0
  10
-103.80902
  20
-29.129992
  0
VERTEX
  5
e8
  8
Layer_0
  10
-103.80902
  20
25.770008
  0
VERTEX
  5
e9
  8
Layer_0
  10
-100.80902
  20
25.770008
  0
VERTEX
  5
ea
  8
Layer_0
  10
-100.80902
  20
38.320007
  0
VERTEX
  5
eb
  8
Layer_0
  10
-113.35902
  20
38.320007
  0
VERTEX
  5
ec
  8
Layer_0
  10
-113.35902
  20
35.320007
  0
SEQEND
  0
POLYLINE
  5
ee
  8
Layer_0
  62
0
  66
1
  10
0
  20
0
  30
0
  0
VERTEX
  5
ee
  8
Layer_0
  10
-165.80902
  20
4.3199987
  0
VERTEX
  5
ef
  8
Layer_0
  10
-165.80902
  20
-7.6800013
  0
VERTEX
  5
f0
  8
Layer_0
  10
-115.80902
  20
-7.6800013
  0
VERTEX
  5
f1
  8
Layer_0
  10
-115.80902
  20
4.3199987
  0
VERTEX
  5
f2
  8
Layer_0
  10
-165.80902
  20
4.3199987
  0
SEQEND
  0
POLYLINE
  5
f4
  8
Layer_0
  62
0
  66
1
  10
0
  20
0
  30
0
  0
VERTEX
  5
f4
  8
Layer_0
  10
-153.40903
  20
29.92001
  0
VERTEX
  5
f5
  8
Layer_0
  10
-153.40903
  20
26.720009
  0
VERTEX
  5
f6
  8
Layer_0
  10
-128.20901
  20
26.720009
  0
VERTEX
  5
f7
  8
Layer_0
  10
-128.20901
  20
29.92001
  0
VERTEX
  5
f8
  8
Layer_0
  10
-153.40903
  20
29.92001
  0
SEQEND
  0
POLYLINE
  5
fa
  8
Layer_0
  62
0
  66
1
  10
0
  20
0
  30
0
  0
VERTEX
  5
fa
  8
Layer_0
  10
-172.40903
  20
10.920009
  0
VERTEX
  5
fb
  8
Layer_0
  10
-172.40903
  20
-14.279991
  0
VERTEX
  5
fc
  8
Layer_0
  10
-169.20901
  20
-14.279991
  0
VERTEX
  5
fd
  8
Layer_0
  10
-169.20901
  20
10.920009
  0
VERTEX
  5
fe
  8
Layer_0
  10
-172.40903
  20
10.920009
  0
SEQEND
  0
POLYLINE
  5
100
  8
Layer_0
  62
0
  66
1
  10
0
  20
0
  30
0
  0
VERTEX
  5
100
  8
Layer_0
  10
-153.40903
  20
-33.279991
  0
VERTEX
  5
101
  8
Layer_0
  10
-153.40903
  20
-30.07999
  0
VERTEX
  5
102
  8
Layer_0
  10
-128.20901
  20
-30.07999
  0
VERTEX
  5
103
  8
Layer_0
  10
-128.20901
  20
-33.279991
  0
VERTEX
  5
104
  8
Layer_0
  10
-153.40903
  20
-33.279991
  0
SEQEND
  0
POLYLINE
  5
106
  8
Layer_0
  62
0
  66
1
  10
0
  20
0
  30
0
  0
VERTEX
  5
106
  8
Layer_0
  10
-112.40902
  20
10.920009
  0
VERTEX
  5
107
  8
Layer_0
  10
-112.40902
  20
-14.279991
  0
VERTEX
  5
108
  8
Layer_0
  10
-109.20902
  20
-14.279991
  0
VERTEX
  5
109
  8
Layer_0
  10
-109.20902
  20
10.920009
  0
VERTEX
  5
10a
  8
Layer_0
  10
-112.40902
  20
10.920009
  0
SEQEND
  0
POLYLINE
  5
10c
  8
Layer_0
  62
0
  66
1
  10
0
  20
0
  30
0
  0
VERTEX
  5
10c
  8
Layer_0
  10
83.936417
  20
13.67981
  0
VERTEX
  5
10d
  8
Layer_0
  10
83.936417
  20
18.67981
  0
VERTEX
  5
10e
  8
Layer_0
  10
86.936417
  20
18.67981
  0
VERTEX
  5
10f
  8
Layer_0
  10
86.936417
  20
26.180008
  0
VERTEX
  5
110
  8
Layer_0
  10
74.436417
  20
26.180008
  0
VERTEX
  5
111
  8
Layer_0
  10
74.436417
  20
29.180008
  0
VERTEX
  5
112
  8
Layer_0
  10
19.436119
  20
29.180008
  0
VERTEX
  5
113
  8
Layer_0
  10
19.436119
  20
26.180008
  0
VERTEX
  5
114
  8
Layer_0
  10
6.9361191
  20
26.180008
  0
VERTEX
  5
115
  8
Layer_0
  10
6.9361191
  20
18.67981
  0
VERTEX
  5
116
  8
Layer_0
  10
9.9361191
  20
18.67981
  0
VERTEX
  5
117
  8
Layer_0
  10
9.9361191
  20
13.67981
  0
VERTEX
  5
118
  8
Layer_0
  10
6.9361191
  20
13.67981
  0
VERTEX
  5
119
  8
Layer_0
  10
6.9361191
  20
6.1798096
  0
VERTEX
  5
11a
  8
Layer_0
  10
19.436119
  20
6.1798096
  0
VERTEX
  5
11b
  8
Layer_0
  10
19.436119
  20
3.1798096
  0
VERTEX
  5
11c
  8
Layer_0
  10
74.436417
  20
3.1798096
  0
VERTEX
  5
11d
  8
Layer_0
  10
74.436417
  20
6.1798096
  0
VERTEX
  5
11e
  8
Layer_0
  10
86.936417
  20
6.1798096
  0
VERTEX
  5
11f
  8
Layer_0
  10
86.936417
  20
13.67981
  0
VERTEX
  5
120
  8
Layer_0
  10
83.936417
  20
13.67981
  0
SEQEND
  0
POLYLINE
  5
122
  8
Layer_0
  62
0
  66
1
  10
0
  20
0
  30
0
  0
VERTEX
  5
122
  8
Layer_0
  10
86.936417
  20
-10.32019
  0
VERTEX
  5
123
  8
Layer_0
  10
86.936417
  20
-15.32019
  0
VERTEX
  5
124
  8
Layer_0
  10
83.936417
  20
-15.32019
  0
VERTEX
  5
125
  8
Layer_0
  10
83.936417
  20
-22.82019
  0
VERTEX
  5
126
  8
Layer_0
  10
74.436417
  20
-22.82019
  0
VERTEX
  5
127
  8
Layer_0
  10
74.436417
  20
-25.82019
  0
VERTEX
  5
128
  8
Layer_0
  10
19.436119
  20
-25.82019
  0
VERTEX
  5
129
  8
Layer_0
  10
19.436119
  20
-22.82019
  0
VERTEX
  5
12a
  8
Layer_0
  10
9.9361191
  20
-22.82019
  0
VERTEX
  5
12b
  8
Layer_0
  10
9.9361191
  20
-15.32019
  0
VERTEX
  5
12c
  8
Layer_0
  10
6.9361191
  20
-15.32019
  0
VERTEX
  5
12d
  8
Layer_0
  10
6.9361191
  20
-10.32019
  0
VERTEX
  5
12e
  8
Layer_0
  10
9.9361191
  20
-10.32019
  0
VERTEX
  5
12f
  8
Layer_0
  10
9.9361191
  20
-2.8201904
  0
VERTEX
  5
130
  8
Layer_0
  10
19.436119
  20
-2.8201904
  0
VERTEX
  5
131
  8
Layer_0
  10
19.436119
  20
0.17980957
  0
VERTEX
  5
132
  8
Layer_0
  10
74.436417
  20
0.17980957
  0
VERTEX
  5
133
  8
Layer_0
  10
74.436417
  20
-2.8201904
  0
VERTEX
  5
134
  8
Layer_0
  10
83.936417
  20
-2.8201904
  0
VERTEX
  5
135
  8
Layer_0
  10
83.936417
  20
-10.32019
  0
VERTEX
  5
136
  8
Layer_0
  10
86.936417
  20
-10.32019
  0
SEQEND
  0
ENDSEC
  0
EOF
